<?xml version="1.0" encoding="utf-8"?>
<!-- Generator: Adobe Illustrator 23.0.4, SVG Export Plug-In . SVG Version: 6.00 Build 0)  -->
<svg version="1.1" id="Capa_1" xmlns="http://www.w3.org/2000/svg" xmlns:xlink="http://www.w3.org/1999/xlink" x="0px" y="0px"
	 viewBox="0 0 25 25" style="enable-background:new 0 0 25 25;" xml:space="preserve">
<style type="text/css">
	.st0{fill:#2196F3;}
	.st1{fill:#FAFAFA;}
</style>
<g>
	<path class="st0" d="M12.5,0.3C5.9,0.1,0.4,5.4,0.3,12c0,3.4,1.5,6.6,4.1,8.7v3.5c0,0.3,0.2,0.5,0.5,0.5c0.1,0,0.2,0,0.3-0.1
		L8,22.9c1.4,0.6,3,0.8,4.5,0.8c6.6,0.1,12.1-5.1,12.2-11.7C24.6,5.4,19.1,0.1,12.5,0.3z"/>
	<path class="st1" d="M20.6,8.6c-0.2-0.2-0.4-0.3-0.7-0.1l-5.3,2.9l-3.3-2.8c-0.2-0.2-0.5-0.2-0.7,0l-6.1,6.1
		c-0.2,0.2-0.2,0.5,0,0.7c0.2,0.2,0.4,0.2,0.6,0.1l5.3-2.9l3.3,2.8c0.2,0.2,0.5,0.2,0.7,0l6.1-6.1C20.7,9.1,20.7,8.8,20.6,8.6z"/>
</g>
<g>
</g>
<g>
</g>
<g>
</g>
<g>
</g>
<g>
</g>
<g>
</g>
<g>
</g>
<g>
</g>
<g>
</g>
<g>
</g>
<g>
</g>
<g>
</g>
<g>
</g>
<g>
</g>
<g>
</g>
</svg>
