<?xml version="1.0" encoding="utf-8"?>
<!-- Generator: Adobe Illustrator 23.0.4, SVG Export Plug-In . SVG Version: 6.00 Build 0)  -->
<svg version="1.1" id="Capa_1" xmlns="http://www.w3.org/2000/svg" xmlns:xlink="http://www.w3.org/1999/xlink" x="0px" y="0px"
	 viewBox="0 0 25 25" style="enable-background:new 0 0 25 25;" xml:space="preserve">
<style type="text/css">
	.st0{fill:#FFFFFF;}
	.st1{fill:#7AD06D;}
</style>
<g>
	<circle class="st0" cx="4.4" cy="20.6" r="2.1"/>
	<circle class="st0" cx="12.4" cy="12.5" r="10.8"/>
	<g>
		<path class="st1" d="M11.9,0.5C5.6,0.8,0.6,6.1,0.6,12.4c0,1.9,0.5,3.8,1.3,5.4L0.6,24c-0.1,0.3,0.2,0.6,0.6,0.5l6-1.4
			c1.5,0.8,3.3,1.2,5.1,1.2c6.5,0.1,11.9-5,12.1-11.5C24.6,5.8,18.9,0.2,11.9,0.5z M19.1,19c-1.8,1.8-4.1,2.7-6.6,2.7
			c-1.5,0-2.9-0.3-4.2-1l-0.8-0.4l-3.7,0.9l0.8-3.8l-0.4-0.8c-0.7-1.3-1-2.7-1-4.2c0-2.5,1-4.8,2.7-6.6c1.7-1.7,4.1-2.7,6.6-2.7
			c2.5,0,4.8,1,6.6,2.7c1.8,1.8,2.7,4.1,2.7,6.6C21.8,14.9,20.8,17.3,19.1,19z"/>
		<path class="st1" d="M18.3,15L16,14.3c-0.3-0.1-0.6,0-0.9,0.2l-0.6,0.6c-0.2,0.2-0.6,0.3-0.9,0.2c-1.1-0.4-3.4-2.5-4-3.5
			c-0.2-0.3-0.1-0.7,0.1-0.9l0.5-0.6c0.2-0.2,0.2-0.6,0.1-0.9l-1-2.2C9.1,6.6,8.5,6.5,8,6.9C7.4,7.4,6.6,8.2,6.5,9.2
			c-0.2,1.6,0.5,3.7,3.2,6.1c3,2.8,5.5,3.2,7,2.8c0.9-0.2,1.6-1.1,2.1-1.8C19.1,15.8,18.8,15.1,18.3,15z"/>
	</g>
</g>
</svg>
