<?xml version="1.0" encoding="utf-8"?>
<!-- Generator: Adobe Illustrator 23.0.4, SVG Export Plug-In . SVG Version: 6.00 Build 0)  -->
<svg version="1.1" id="Capa_1" xmlns="http://www.w3.org/2000/svg" xmlns:xlink="http://www.w3.org/1999/xlink" x="0px" y="0px"
	 viewBox="0 0 25 25" style="enable-background:new 0 0 25 25;" xml:space="preserve">
<style type="text/css">
	.st0{fill:#7AD06D;}
</style>
<g>
	<g>
		<path class="st0" d="M11.9,0.3C5.5,0.6,0.4,6,0.4,12.4c0,2,0.5,3.8,1.3,5.5l-1.3,6.2c-0.1,0.3,0.2,0.6,0.6,0.6l6.1-1.4
			c1.6,0.8,3.3,1.2,5.2,1.3c6.6,0.1,12.1-5.1,12.3-11.7C24.8,5.7,19,0,11.9,0.3z M19.2,19.1c-1.8,1.8-4.2,2.8-6.7,2.8
			c-1.5,0-2.9-0.3-4.2-1l-0.9-0.4l-3.7,0.9l0.8-3.8L4,16.7c-0.7-1.3-1-2.8-1-4.3c0-2.5,1-4.9,2.8-6.7s4.2-2.8,6.7-2.8s4.9,1,6.7,2.8
			C21,7.5,22,9.9,22,12.4S21,17.3,19.2,19.1z"/>
		<path class="st0" d="M18.4,15L16,14.4c-0.3-0.1-0.6,0-0.9,0.2l-0.6,0.6c-0.2,0.2-0.6,0.3-0.9,0.2c-1.1-0.4-3.4-2.5-4-3.6
			c-0.2-0.3-0.1-0.7,0.1-0.9l0.5-0.6c0.2-0.3,0.2-0.6,0.1-0.9l-1-2.2C9.1,6.5,8.4,6.4,7.9,6.8C7.3,7.3,6.5,8.2,6.4,9.1
			c-0.2,1.6,0.5,3.7,3.2,6.2c3.1,2.9,5.5,3.3,7.2,2.9c0.9-0.2,1.6-1.1,2.1-1.8C19.2,15.8,18.9,15.2,18.4,15z"/>
	</g>
</g>
</svg>
