<?xml version="1.0" encoding="utf-8"?>
<!-- Generator: Adobe Illustrator 23.0.4, SVG Export Plug-In . SVG Version: 6.00 Build 0)  -->
<svg version="1.1" id="Capa_1" xmlns="http://www.w3.org/2000/svg" xmlns:xlink="http://www.w3.org/1999/xlink" x="0px" y="0px"
	 viewBox="0 0 35 27" style="enable-background:new 0 0 35 27;" xml:space="preserve">
<style type="text/css">
	.st0{fill:#FFCD29;}
	.st1{fill:#FDAD2C;}
</style>
<g>
	<path class="st0" d="M31.5,26.9c0.8,0,1.4-0.3,2-0.8l-9.6-9.6c-0.2,0.2-0.5,0.3-0.7,0.5c-0.7,0.5-1.3,0.9-1.8,1.2
		c-0.4,0.3-1,0.6-1.8,0.9c-0.7,0.3-1.4,0.5-2.1,0.5h0h0c-0.6,0-1.3-0.2-2.1-0.5c-0.7-0.3-1.3-0.6-1.8-0.9c-0.4-0.3-1-0.7-1.8-1.2
		c-0.2-0.1-0.4-0.3-0.7-0.5l-9.6,9.6c0.6,0.5,1.2,0.8,2,0.8H31.5z"/>
	<path class="st1" d="M2.4,10.4C1.7,9.9,1,9.4,0.5,8.8v14.7L9,14.9C7.3,13.7,5.1,12.2,2.4,10.4z"/>
	<path class="st1" d="M32.6,10.4c-2.6,1.8-4.8,3.3-6.6,4.5l8.5,8.5V8.8C34,9.4,33.3,9.9,32.6,10.4z"/>
	<path class="st0" d="M31.5,0.1H3.5c-1,0-1.7,0.3-2.2,1C0.8,1.8,0.5,2.6,0.5,3.6c0,0.8,0.3,1.7,1,2.6C2.2,7.1,3,7.8,3.8,8.4
		c0.4,0.3,1.7,1.2,3.9,2.7c1.2,0.8,2.2,1.5,3.1,2.1c0.7,0.5,1.4,1,1.9,1.3c0.1,0,0.2,0.1,0.3,0.2c0.1,0.1,0.3,0.2,0.5,0.4
		c0.4,0.3,0.8,0.5,1,0.7c0.3,0.2,0.6,0.4,1,0.6c0.4,0.2,0.7,0.4,1.1,0.5c0.3,0.1,0.7,0.2,0.9,0.2h0h0c0.3,0,0.6-0.1,0.9-0.2
		c0.3-0.1,0.7-0.3,1.1-0.5c0.4-0.2,0.7-0.4,1-0.6c0.3-0.2,0.6-0.4,1-0.7c0.2-0.2,0.4-0.3,0.5-0.4c0.1-0.1,0.2-0.2,0.3-0.2
		c0.4-0.3,1.1-0.7,1.9-1.3c1.6-1.1,3.9-2.7,7-4.8C32.2,7.7,33,7,33.6,6c0.6-0.9,0.9-1.9,0.9-2.9c0-0.8-0.3-1.6-0.9-2.1
		C33,0.4,32.3,0.1,31.5,0.1z"/>
</g>
<g>
</g>
<g>
</g>
<g>
</g>
<g>
</g>
<g>
</g>
<g>
</g>
<g>
</g>
<g>
</g>
<g>
</g>
<g>
</g>
<g>
</g>
<g>
</g>
<g>
</g>
<g>
</g>
<g>
</g>
</svg>
