<?xml version="1.0" encoding="utf-8"?>
<!-- Generator: Adobe Illustrator 23.0.4, SVG Export Plug-In . SVG Version: 6.00 Build 0)  -->
<svg version="1.1" id="Capa_1" xmlns="http://www.w3.org/2000/svg" xmlns:xlink="http://www.w3.org/1999/xlink" x="0px" y="0px"
	 viewBox="0 0 35 27" style="enable-background:new 0 0 35 27;" xml:space="preserve">
<style type="text/css">
	.st0{fill:#FFFFFF;}
	.st1{fill:#FFCD29;}
	.st2{fill:#FDAD2C;}
</style>
<g>
	<path class="st0" d="M31.1,27H3.9c-1.9,0-3.4-1.5-3.4-3.4V3.4C0.4,1.5,2,0,3.9,0l27.3,0c1.9,0,3.4,1.5,3.4,3.4v20.1
		C34.6,25.5,33,27,31.1,27z"/>
	<g>
		<path class="st1" d="M31.5,26.8c0.8,0,1.4-0.3,2-0.8l-9.6-9.6c-0.2,0.2-0.5,0.3-0.7,0.5c-0.7,0.5-1.3,0.9-1.8,1.2
			c-0.4,0.3-1,0.6-1.8,0.9c-0.7,0.3-1.4,0.5-2.1,0.5h0h0c-0.6,0-1.3-0.2-2.1-0.5c-0.7-0.3-1.3-0.6-1.8-0.9c-0.4-0.3-1-0.7-1.8-1.2
			c-0.2-0.1-0.4-0.3-0.7-0.5l-9.6,9.6c0.6,0.5,1.2,0.8,2,0.8H31.5z"/>
		<path class="st2" d="M2.5,10.3c-0.7-0.5-1.4-1-1.9-1.7v14.7l8.5-8.5C7.4,13.7,5.2,12.2,2.5,10.3z"/>
		<path class="st2" d="M32.7,10.3c-2.6,1.8-4.8,3.3-6.6,4.5l8.5,8.5V8.7C34,9.3,33.4,9.8,32.7,10.3z"/>
		<path class="st1" d="M31.5,0.1H3.6c-1,0-1.7,0.3-2.2,1C0.8,1.7,0.6,2.5,0.6,3.5c0,0.8,0.3,1.7,1,2.6C2.3,7,3,7.8,3.8,8.3
			C4.3,8.6,5.6,9.5,7.7,11c1.2,0.8,2.2,1.5,3.1,2.1c0.7,0.5,1.4,1,1.9,1.3c0.1,0,0.2,0.1,0.3,0.2c0.1,0.1,0.3,0.2,0.5,0.4
			c0.4,0.3,0.8,0.5,1,0.7c0.3,0.2,0.6,0.4,1,0.6c0.4,0.2,0.7,0.4,1.1,0.5c0.3,0.1,0.7,0.2,0.9,0.2h0h0c0.3,0,0.6-0.1,0.9-0.2
			c0.3-0.1,0.7-0.3,1.1-0.5c0.4-0.2,0.7-0.4,1-0.6c0.3-0.2,0.6-0.4,1-0.7c0.2-0.2,0.4-0.3,0.5-0.4c0.1-0.1,0.2-0.2,0.3-0.2
			c0.4-0.3,1.1-0.7,1.9-1.3c1.6-1.1,3.9-2.7,7-4.8C32.3,7.7,33,6.9,33.7,6c0.6-0.9,0.9-1.9,0.9-2.9c0-0.8-0.3-1.6-0.9-2.1
			C33.1,0.4,32.4,0.1,31.5,0.1z"/>
	</g>
</g>
</svg>
