<?xml version="1.0" encoding="utf-8"?>
<!-- Generator: Adobe Illustrator 23.0.4, SVG Export Plug-In . SVG Version: 6.00 Build 0)  -->
<svg version="1.1" id="Capa_1" xmlns="http://www.w3.org/2000/svg" xmlns:xlink="http://www.w3.org/1999/xlink" x="0px" y="0px"
	 viewBox="0 0 25 25" style="enable-background:new 0 0 25 25;" xml:space="preserve">
<style type="text/css">
	.st0{fill:#FCFCFC;}
	.st1{fill:url(#SVGID_1_);}
	.st2{fill:url(#SVGID_2_);}
	.st3{fill:url(#SVGID_3_);}
</style>
<g>
	<path class="st0" d="M7.5,23.8h10.9c3,0,5.5-2.4,5.5-5.5V7.4c0-3-2.4-5.5-5.5-5.5H7.5C4.5,1.9,2,4.4,2,7.4v10.9
		C2,21.3,4.5,23.8,7.5,23.8z"/>
	<g>
		
			<linearGradient id="SVGID_1_" gradientUnits="userSpaceOnUse" x1="12.5" y1="1906.6787" x2="12.5" y2="1882.4403" gradientTransform="matrix(1 0 0 1 0 -1882)">
			<stop  offset="0" style="stop-color:#E09B3D"/>
			<stop  offset="0.3" style="stop-color:#C74C4D"/>
			<stop  offset="0.6" style="stop-color:#C21975"/>
			<stop  offset="1" style="stop-color:#7024C4"/>
		</linearGradient>
		<path class="st1" d="M17.5,0.2H7.5c-4,0-7.3,3.3-7.3,7.3v9.9c0,4,3.3,7.3,7.3,7.3h9.9c4,0,7.3-3.3,7.3-7.3V7.5
			C24.7,3.5,21.5,0.2,17.5,0.2z M22.3,17.5c0,2.7-2.2,4.8-4.8,4.8H7.5c-2.7,0-4.8-2.2-4.8-4.8V7.5c0-2.7,2.2-4.8,4.8-4.8h9.9
			c2.7,0,4.8,2.2,4.8,4.8L22.3,17.5L22.3,17.5z"/>
		
			<linearGradient id="SVGID_2_" gradientUnits="userSpaceOnUse" x1="12.5" y1="1906.6787" x2="12.5" y2="1882.4403" gradientTransform="matrix(1 0 0 1 0 -1882)">
			<stop  offset="0" style="stop-color:#E09B3D"/>
			<stop  offset="0.3" style="stop-color:#C74C4D"/>
			<stop  offset="0.6" style="stop-color:#C21975"/>
			<stop  offset="1" style="stop-color:#7024C4"/>
		</linearGradient>
		<path class="st2" d="M12.5,6.2C9,6.2,6.2,9,6.2,12.5s2.8,6.3,6.3,6.3s6.3-2.8,6.3-6.3S16,6.2,12.5,6.2z M12.5,16.4
			c-2.1,0-3.9-1.7-3.9-3.9s1.7-3.9,3.9-3.9c2.1,0,3.9,1.7,3.9,3.9C16.4,14.6,14.6,16.4,12.5,16.4z"/>
		
			<linearGradient id="SVGID_3_" gradientUnits="userSpaceOnUse" x1="18.8488" y1="1906.6787" x2="18.8488" y2="1882.4403" gradientTransform="matrix(1 0 0 1 0 -1882)">
			<stop  offset="0" style="stop-color:#E09B3D"/>
			<stop  offset="0.3" style="stop-color:#C74C4D"/>
			<stop  offset="0.6" style="stop-color:#C21975"/>
			<stop  offset="1" style="stop-color:#7024C4"/>
		</linearGradient>
		<circle class="st3" cx="18.8" cy="6.2" r="1.5"/>
	</g>
</g>
</svg>
