<?xml version="1.0" encoding="utf-8"?>
<!-- Generator: Adobe Illustrator 23.0.4, SVG Export Plug-In . SVG Version: 6.00 Build 0)  -->
<svg version="1.1" id="Capa_1" xmlns="http://www.w3.org/2000/svg" xmlns:xlink="http://www.w3.org/1999/xlink" x="0px" y="0px"
	 viewBox="0 0 43.2 53" style="enable-background:new 0 0 43.2 53;" xml:space="preserve">
<style type="text/css">
	.st0{fill:#FFFFFF;}
</style>
<g>
	<path class="st0" d="M37.3,19.7v-5.5c0-7.8-7-14.2-15.7-14.2S5.9,6.4,5.9,14.2v5.5c-3.3,0.6-5.9,3.5-5.9,7v19.2
		C0,49.8,3.2,53,7.1,53h29c3.9,0,7.1-3.2,7.1-7.1V26.7C43.2,23.2,40.6,20.3,37.3,19.7z M7.9,14.2C7.9,7.5,14,2,21.6,2
		s13.7,5.5,13.7,12.3v5.4H7.9V14.2z M41.2,45.9c0,2.8-2.3,5.1-5.1,5.1h-29C4.3,51,2,48.7,2,45.9V26.7c0-2.8,2.3-5.1,5.1-5.1h29
		c2.8,0,5.1,2.3,5.1,5.1C41.2,26.7,41.2,45.9,41.2,45.9z"/>
	<path class="st0" d="M21.6,27.5c-2.2,0-3.9,1.8-3.9,3.9v5.9c0,2.2,1.8,3.9,3.9,3.9s3.9-1.8,3.9-3.9v-5.9
		C25.5,29.2,23.8,27.5,21.6,27.5z M23.6,37.3c0,1.1-0.9,2-2,2s-2-0.9-2-2v-5.9c0-1.1,0.9-2,2-2s2,0.9,2,2V37.3z"/>
</g>
</svg>
