<?xml version="1.0" encoding="utf-8"?>
<!-- Generator: Adobe Illustrator 23.0.4, SVG Export Plug-In . SVG Version: 6.00 Build 0)  -->
<svg version="1.1" id="Capa_1" xmlns="http://www.w3.org/2000/svg" xmlns:xlink="http://www.w3.org/1999/xlink" x="0px" y="0px"
	 viewBox="0 0 67 67" style="enable-background:new 0 0 67 67;" xml:space="preserve">
<g>
	<path d="M63,27.5h-2.8c-0.7-3.1-1.9-5.9-3.6-8.6l2-2c1.2-1.2,1.2-3.1,0-4.2l-4.3-4.3c-0.6-0.6-1.3-0.9-2.1-0.9
		c-0.8,0-1.5,0.3-2.1,0.9l-2,2c-2.6-1.7-5.5-2.9-8.6-3.6V4c0-1.6-1.3-3-3-3h-6.1c-1.6,0-3,1.3-3,3v2.8c-3.1,0.7-5.9,1.9-8.6,3.6
		l-2-2c-0.6-0.6-1.3-0.9-2.1-0.9c-0.8,0-1.5,0.3-2.1,0.9l-4.3,4.3c-1.2,1.2-1.2,3.1,0,4.2l2,2c-1.7,2.6-2.9,5.5-3.6,8.6H4
		c-1.6,0-3,1.3-3,3v6.1c0,1.6,1.3,3,3,3h2.8c0.7,3.1,1.9,5.9,3.6,8.6l-2,2c-0.6,0.6-0.9,1.3-0.9,2.1c0,0.8,0.3,1.5,0.9,2.1l4.3,4.3
		c0.6,0.6,1.3,0.9,2.1,0.9c0.8,0,1.5-0.3,2.1-0.9l2-2c2.6,1.7,5.5,2.9,8.6,3.6V63c0,1.6,1.3,3,3,3h6.1c1.6,0,3-1.3,3-3v-2.8
		c3.1-0.7,5.9-1.9,8.6-3.6l2,2c0.6,0.6,1.3,0.9,2.1,0.9s1.5-0.3,2.1-0.9l4.3-4.3c0.6-0.6,0.9-1.3,0.9-2.1s-0.3-1.5-0.9-2.1l-2-2
		c1.7-2.6,2.9-5.5,3.6-8.6H63c1.6,0,3-1.3,3-3v-6.1C66,28.8,64.7,27.5,63,27.5L63,27.5z M64.1,36.6c0,0.6-0.5,1.1-1.1,1.1h-3.5
		c-0.5,0-0.8,0.3-0.9,0.8c-0.7,3.4-2,6.5-3.9,9.3c-0.3,0.4-0.2,0.9,0.1,1.2l2.5,2.5c0.2,0.2,0.3,0.5,0.3,0.8c0,0.3-0.1,0.6-0.3,0.8
		L53,57.3c-0.2,0.2-0.5,0.3-0.8,0.3c-0.3,0-0.6-0.1-0.8-0.3l-2.5-2.5c-0.3-0.3-0.8-0.4-1.2-0.1c-2.8,1.9-6,3.2-9.3,3.9
		c-0.4,0.1-0.8,0.5-0.8,0.9V63c0,0.6-0.5,1.1-1.1,1.1h-6.1c-0.6,0-1.1-0.5-1.1-1.1v-3.5c0-0.5-0.3-0.8-0.8-0.9
		c-3.4-0.7-6.5-2-9.3-3.9c-0.2-0.1-0.3-0.2-0.5-0.2c-0.2,0-0.5,0.1-0.7,0.3l-2.5,2.5c-0.2,0.2-0.5,0.3-0.8,0.3
		c-0.3,0-0.6-0.1-0.8-0.3L9.7,53c-0.2-0.2-0.3-0.5-0.3-0.8c0-0.3,0.1-0.6,0.3-0.8l2.5-2.5c0.3-0.3,0.4-0.8,0.1-1.2
		c-1.9-2.8-3.2-6-3.9-9.3C8.4,38,8,37.6,7.5,37.6H4c-0.6,0-1.1-0.5-1.1-1.1v-6.1c0-0.6,0.5-1.1,1.1-1.1h3.5c0.5,0,0.8-0.3,0.9-0.8
		c0.7-3.4,2-6.5,3.9-9.3c0.3-0.4,0.2-0.9-0.1-1.2l-2.5-2.5c-0.4-0.4-0.4-1.1,0-1.5L14,9.7c0.2-0.2,0.5-0.3,0.8-0.3
		c0.3,0,0.6,0.1,0.8,0.3l2.5,2.5c0.3,0.3,0.8,0.4,1.2,0.1c2.8-1.9,6-3.2,9.3-3.9C29,8.4,29.4,8,29.4,7.5V4c0-0.6,0.5-1.1,1.1-1.1
		h6.1c0.6,0,1.1,0.5,1.1,1.1v3.5c0,0.5,0.3,0.8,0.8,0.9c3.4,0.7,6.5,2,9.3,3.9c0.4,0.3,0.9,0.2,1.2-0.1l2.5-2.5
		c0.2-0.2,0.5-0.3,0.8-0.3s0.6,0.1,0.8,0.3l4.3,4.3c0.4,0.4,0.4,1.1,0,1.5l-2.5,2.5c-0.3,0.3-0.4,0.8-0.1,1.2c1.9,2.8,3.2,6,3.9,9.3
		c0.1,0.4,0.5,0.8,0.9,0.8H63c0.6,0,1.1,0.5,1.1,1.1V36.6L64.1,36.6z"/>
	<path d="M16.1,33.5c0-9.6,7.8-17.4,17.4-17.4c2.3,0,4.6,0.5,6.8,1.4c0.5,0.2,1,0,1.3-0.5c0.2-0.5,0-1-0.5-1.3
		c-2.4-1-4.9-1.5-7.5-1.5c-10.6,0-19.3,8.6-19.3,19.3c0,4.4,1.5,8.7,4.3,12.1c0.2,0.2,0.5,0.4,0.7,0.4c0.2,0,0.4-0.1,0.6-0.2
		c0.4-0.3,0.5-0.9,0.1-1.3C17.5,41.3,16.1,37.5,16.1,33.5z"/>
	<path d="M50,25.5c-0.5,0.2-0.7,0.8-0.5,1.3c0.9,2.1,1.4,4.4,1.4,6.7c0,9.6-7.8,17.4-17.4,17.4c-4,0-7.8-1.4-10.9-3.9
		c-0.4-0.3-1-0.3-1.3,0.1c-0.3,0.4-0.3,1,0.1,1.3c3.4,2.8,7.7,4.3,12.1,4.3c10.6,0,19.3-8.6,19.3-19.3c0-2.6-0.5-5.1-1.5-7.5
		C51.1,25.5,50.5,25.3,50,25.5z"/>
	<path d="M44.4,20c1,0.8,1.8,1.6,2.6,2.6c0.2,0.2,0.5,0.4,0.7,0.4c0.2,0,0.4-0.1,0.6-0.2c0.4-0.3,0.5-0.9,0.1-1.3
		c-0.9-1.1-1.8-2-2.9-2.9c-0.4-0.3-1-0.3-1.3,0.1C43.9,19.1,44,19.7,44.4,20L44.4,20z"/>
	<path d="M33.5,18.3c-8.4,0-15.2,6.8-15.2,15.2s6.8,15.2,15.2,15.2s15.2-6.8,15.2-15.2S41.9,18.3,33.5,18.3z M33.5,46.8
		c-7.3,0-13.3-6-13.3-13.3s6-13.3,13.3-13.3s13.3,6,13.3,13.3S40.8,46.8,33.5,46.8z"/>
</g>
<g>
</g>
<g>
</g>
<g>
</g>
<g>
</g>
<g>
</g>
<g>
</g>
<g>
</g>
<g>
</g>
<g>
</g>
<g>
</g>
<g>
</g>
<g>
</g>
<g>
</g>
<g>
</g>
<g>
</g>
</svg>
