<?xml version="1.0" encoding="utf-8"?>
<!-- Generator: Adobe Illustrator 23.0.4, SVG Export Plug-In . SVG Version: 6.00 Build 0)  -->
<svg version="1.1" id="Capa_1" xmlns="http://www.w3.org/2000/svg" xmlns:xlink="http://www.w3.org/1999/xlink" x="0px" y="0px"
	 viewBox="0 0 70 67" style="enable-background:new 0 0 70 67;" xml:space="preserve">
<g>
	<path d="M26.6,44.5c-0.9,0-1.4-1.1-0.8-1.7l8.1-9.6V18.9c0-1.3,2.1-1.4,2.1,0v14.6c0,0.2-0.1,0.5-0.2,0.7l-8.4,9.9
		C27.2,44.3,26.9,44.5,26.6,44.5z"/>
	<path d="M35,1C17.1,1,2.5,15.6,2.5,33.5S17.1,66,35,66s32.5-14.6,32.5-32.5S52.9,1,35,1z M36,63.9v-6.2c0-1.3-2.1-1.4-2.1,0v6.2
		C18,63.3,5.2,50.5,4.6,34.5h6.2c1.3,0,1.4-2.1,0-2.1H4.6C5.2,16.5,18,3.7,34,3.1v6.2c0,1.3,2.1,1.4,2.1,0V3.1
		C52,3.7,64.8,16.5,65.4,32.5h-6.2c-1.3,0-1.4,2.1,0,2.1h6.2C64.8,50.5,52,63.3,36,63.9z"/>
</g>
<g>
</g>
<g>
</g>
<g>
</g>
<g>
</g>
<g>
</g>
<g>
</g>
<g>
</g>
<g>
</g>
<g>
</g>
<g>
</g>
<g>
</g>
<g>
</g>
<g>
</g>
<g>
</g>
<g>
</g>
</svg>
