<?xml version="1.0" encoding="utf-8"?>
<!-- Generator: Adobe Illustrator 23.0.4, SVG Export Plug-In . SVG Version: 6.00 Build 0)  -->
<svg version="1.1" id="Capa_1" xmlns="http://www.w3.org/2000/svg" xmlns:xlink="http://www.w3.org/1999/xlink" x="0px" y="0px"
	 viewBox="0 0 69 65" style="enable-background:new 0 0 69 65;" xml:space="preserve">
<g>
	<path d="M34.5,3C17.1,3,3,17.1,3,34.5c0,10.6,5.3,20.4,14.1,26.2c0.5,0.3,1.2,0.2,1.4-0.3c3.3-5.7,9.4-9.2,16-9.2s12.6,3.6,16,9.2
		c0.5,0.8,1.2,0.5,1.4,0.3C60.7,54.8,66,45.1,66,34.5C66,17.1,51.9,3,34.5,3L34.5,3z M51.6,58.4c-3.8-5.7-10.2-9.3-17.1-9.3
		s-13.4,3.5-17.1,9.3c-7.5-5.3-12-13.8-12.3-22.9h5.3c0.6,0,1-0.5,1-1s-0.5-1-1-1H5.1c0.3-7.4,3.2-14,7.9-19.1l3.8,3.8
		c0.2,0.2,0.5,0.3,0.7,0.3c0.9,0,1.3-1.1,0.7-1.7L14.4,13c5-4.7,11.7-7.7,19.1-7.9v5.3c0,0.6,0.5,1,1,1s1-0.5,1-1V5.1
		c7.4,0.3,14,3.2,19.1,7.9l-3.8,3.8c-0.6,0.6-0.2,1.7,0.7,1.7c0.3,0,0.5-0.1,0.7-0.3l3.8-3.8c4.7,5,7.7,11.7,7.9,19.1h-5.3
		c-0.6,0-1,0.5-1,1s0.5,1,1,1h5.3C63.6,44.6,59.1,53.1,51.6,58.4L51.6,58.4z"/>
	<path d="M33.5,40.3c-2.6,0-4.9-1.8-5.5-4.3c-0.7-2.5,0.5-5.4,2.9-6.6l15.3-7.9c0.9-0.5,1.9,0.6,1.3,1.5c0,0-7.3,11.3-8.9,14.2
		C37.5,39.2,35.6,40.3,33.5,40.3L33.5,40.3z M31.7,31.3c-2.2,1.2-2.6,4.2-0.9,5.9c1.7,1.7,4.7,1.3,5.9-0.9c1.6-2.9,6.7-11,6.7-11
		L31.7,31.3z"/>
</g>
<g>
</g>
<g>
</g>
<g>
</g>
<g>
</g>
<g>
</g>
<g>
</g>
<g>
</g>
<g>
</g>
<g>
</g>
<g>
</g>
<g>
</g>
<g>
</g>
<g>
</g>
<g>
</g>
<g>
</g>
</svg>
