<?xml version="1.0" encoding="utf-8"?>
<!-- Generator: Adobe Illustrator 23.0.4, SVG Export Plug-In . SVG Version: 6.00 Build 0)  -->
<svg version="1.1" id="Layer_1" xmlns="http://www.w3.org/2000/svg" xmlns:xlink="http://www.w3.org/1999/xlink" x="0px" y="0px"
	 viewBox="0 0 512 512" style="enable-background:new 0 0 512 512;" xml:space="preserve">
<g>
	<g>
		<path d="M317,225v287h195V225H317z M399.5,360h-30v-30h30V360z M399.5,300h-30v-30h30V300z M459.5,360h-30v-30h30V360z M459.5,300
			h-30v-30h30V300z"/>
	</g>
</g>
<g>
	<g>
		<rect x="347" y="150" width="135" height="45"/>
	</g>
</g>
<g>
	<g>
		<rect x="377" width="75" height="120"/>
	</g>
</g>
<g>
	<g>
		<rect x="225" y="270" width="62" height="242"/>
	</g>
</g>
<g>
	<g>
		<path d="M0,225v287h195V225H0z M82.5,360h-30v-30h30V360z M82.5,300h-30v-30h30V300z M142.5,360h-30v-30h30V360z M142.5,300h-30
			v-30h30V300z"/>
	</g>
</g>
<g>
	<g>
		<rect x="30" y="150" width="135" height="45"/>
	</g>
</g>
<g>
	<g>
		<rect x="60" width="75" height="120"/>
	</g>
</g>
</svg>
