<?xml version="1.0" encoding="utf-8"?>
<!-- Generator: Adobe Illustrator 23.0.4, SVG Export Plug-In . SVG Version: 6.00 Build 0)  -->
<svg version="1.1" id="Capa_1" xmlns="http://www.w3.org/2000/svg" xmlns:xlink="http://www.w3.org/1999/xlink" x="0px" y="0px"
	 viewBox="0 0 78 75" style="enable-background:new 0 0 78 75;" xml:space="preserve">
<g>
	<path d="M55.3,31.2c-11.4,0-20.7,9.3-20.7,20.7s9.3,20.7,20.7,20.7S76,63.3,76,51.9C76,40.5,66.7,31.2,55.3,31.2z M55.3,70.1
		c-10.1,0-18.2-8.2-18.2-18.2s8.2-18.2,18.2-18.2s18.2,8.2,18.2,18.2C73.6,62,65.4,70.1,55.3,70.1z"/>
	<path d="M56.5,48.5v-7.5h-2.4v7.5c-1,0.4-1.8,1.2-2.2,2.2h-5.1v2.4h5.1c0.6,1.6,2.2,2.6,3.8,2.4c1.7-0.2,3-1.5,3.2-3.2
		C59.1,50.6,58.1,49,56.5,48.5z M55.3,53.1c-0.7,0-1.2-0.5-1.2-1.2c0-0.7,0.5-1.2,1.2-1.2c0.7,0,1.2,0.5,1.2,1.2
		C56.5,52.6,56,53.1,55.3,53.1z"/>
	<path d="M39.5,50.7h2.4v2.4h-2.4V50.7z"/>
	<path d="M54.1,65.3h2.4v2.4h-2.4V65.3z"/>
	<path d="M68.7,50.7h2.4v2.4h-2.4V50.7z"/>
	<path d="M54.1,36.1h2.4v2.4h-2.4V36.1z"/>
	<path d="M5.4,54.3V19h56v11h2.4v-17c0-3.4-2.7-6.1-6.1-6.1h-8.5V5.7c0-2-1.6-3.7-3.7-3.7c-2,0-3.6,1.6-3.6,3.7v1.2h-17V5.7
		c0-2-1.6-3.7-3.6-3.7s-3.6,1.6-3.6,3.7v1.2H9.1C5.7,6.9,3,9.6,3,12.9v41.4c0,3.4,2.7,6.1,6.1,6.1h24.3V58H9.1
		C7.1,58,5.4,56.3,5.4,54.3z M44.4,5.7c0-0.7,0.5-1.2,1.2-1.2c0.7,0,1.2,0.5,1.2,1.2v4.9c0,0.7-0.5,1.2-1.2,1.2
		c-0.7,0-1.2-0.5-1.2-1.2V5.7z M20,5.7c0-0.7,0.5-1.2,1.2-1.2s1.2,0.5,1.2,1.2v4.9c0,0.7-0.5,1.2-1.2,1.2S20,11.2,20,10.5V5.7z
		 M9.1,9.3h8.5v1.2c0,2,1.6,3.7,3.6,3.7s3.6-1.6,3.6-3.7V9.3h17v1.2c0,2,1.6,3.7,3.6,3.7c2,0,3.7-1.6,3.7-3.7V9.3h8.5
		c2,0,3.7,1.6,3.7,3.6v3.7h-56v-3.7C5.4,10.9,7.1,9.3,9.1,9.3z"/>
	<path d="M20,28.8c0-1.3-1.1-2.4-2.4-2.4h-4.9c-1.3,0-2.4,1.1-2.4,2.4v4.9c0,1.3,1.1,2.4,2.4,2.4h4.9c1.3,0,2.4-1.1,2.4-2.4V28.8z
		 M12.7,33.6v-4.9h4.9v4.9H12.7z"/>
	<path d="M32.2,28.8c0-1.3-1.1-2.4-2.4-2.4h-4.9c-1.3,0-2.4,1.1-2.4,2.4v4.9c0,1.3,1.1,2.4,2.4,2.4h4.9c1.3,0,2.4-1.1,2.4-2.4V28.8z
		 M24.9,33.6v-4.9h4.9v4.9H24.9z"/>
	<path d="M44.4,32.4v-3.7c0-1.3-1.1-2.4-2.4-2.4h-4.9c-1.3,0-2.4,1.1-2.4,2.4v4.9c0,1.3,1.1,2.4,2.4,2.4h2.4v-2.4h-2.4v-4.9h4.9v3.7
		H44.4z"/>
	<path d="M17.6,40.9h-4.9c-1.3,0-2.4,1.1-2.4,2.4v4.9c0,1.3,1.1,2.4,2.4,2.4h4.9c1.3,0,2.4-1.1,2.4-2.4v-4.9
		C20,42,18.9,40.9,17.6,40.9z M12.7,48.2v-4.9h4.9v4.9H12.7z"/>
	<path d="M29.8,40.9h-4.9c-1.3,0-2.4,1.1-2.4,2.4v4.9c0,1.3,1.1,2.4,2.4,2.4h4.9c1.3,0,2.4-1.1,2.4-2.4v-4.9
		C32.2,42,31.1,40.9,29.8,40.9z M24.9,48.2v-4.9h4.9v4.9H24.9z"/>
	<path d="M56.5,30v-1.2c0-1.3-1.1-2.4-2.4-2.4h-4.9c-1.3,0-2.4,1.1-2.4,2.4V30h2.4v-1.2h4.9V30H56.5z"/>
</g>
<g>
</g>
<g>
</g>
<g>
</g>
<g>
</g>
<g>
</g>
<g>
</g>
<g>
</g>
<g>
</g>
<g>
</g>
<g>
</g>
<g>
</g>
<g>
</g>
<g>
</g>
<g>
</g>
<g>
</g>
</svg>
