<?xml version="1.0" encoding="utf-8"?>
<!-- Generator: Adobe Illustrator 23.1.1, SVG Export Plug-In . SVG Version: 6.00 Build 0)  -->
<svg version="1.1" id="Capa_1" xmlns="http://www.w3.org/2000/svg" xmlns:xlink="http://www.w3.org/1999/xlink" x="0px" y="0px"
	 viewBox="0 0 15 15" style="enable-background:new 0 0 15 15;" xml:space="preserve">
<style type="text/css">
	.st0{fill:#FFFFFF;}
</style>
<g>
	<path class="st0" d="M15.1,0.4C15.2,0,14.3,1,12.6,2c-0.6,0.3-1.2,0.6-1.2,0.6c-0.3,0.2-0.6,0.4-1,0.5C9.8,3.4,9.1,3.6,8.2,3.9
		C7.4,4.1,6.8,4.2,6.4,4.3C6,4.4,5.3,4.5,4.4,4.6C3.5,4.8,3,4.9,2.7,4.9c0,0-0.1,0-0.4,0.1C2,5.1,1.9,5.1,1.9,5.1L1.5,5.2
		C1.2,5.3,1.1,5.4,1.1,5.4S1,5.5,0.9,5.6C0.7,5.8,0.6,5.9,0.6,6l0,0C0.4,6.4,0.3,6.9,0.4,7.3c0.1,0.4,0.3,0.8,0.7,1
		c1.4,0.8,2.7,1.5,3.9,2c3.7,1.5,3.7,1.6,7,2.5c2.1,0.6,3.7,1.2,3.7,0.6C15.7,10.7,14.8,2.5,15.1,0.4z"/>
</g>
</svg>
