<?xml version="1.0" encoding="utf-8"?>
<!-- Generator: Adobe Illustrator 23.1.1, SVG Export Plug-In . SVG Version: 6.00 Build 0)  -->
<svg version="1.1" id="Capa_1" xmlns="http://www.w3.org/2000/svg" xmlns:xlink="http://www.w3.org/1999/xlink" x="0px" y="0px"
	 viewBox="0 0 15 15" style="enable-background:new 0 0 15 15;" xml:space="preserve">
<style type="text/css">
	.st0{fill:#5B6268;}
</style>
<g>
	<path class="st0" d="M-0.6,13.4c0,0.6,1.6,0,3.7-0.6c3.3-0.9,3.3-1,7-2.5c1.2-0.5,2.5-1.2,3.9-2c0.4-0.2,0.6-0.6,0.7-1
		c0.1-0.4,0-0.9-0.2-1.3l0,0c0-0.1-0.1-0.2-0.3-0.4C14.1,5.5,14,5.4,14,5.4s-0.1-0.1-0.4-0.2l-0.4-0.1c0,0-0.1,0-0.4-0.1
		c-0.3-0.1-0.4-0.1-0.4-0.1c-0.3,0-0.8-0.1-1.7-0.3c-0.9-0.1-1.6-0.2-2-0.3c-0.4-0.1-1-0.2-1.8-0.4C6,3.6,5.3,3.4,4.7,3.1
		C4.3,3,4,2.8,3.7,2.6c0,0-0.6-0.3-1.2-0.6C0.8,1-0.1,0,0,0.4C0.3,2.5-0.6,10.7-0.6,13.4z"/>
</g>
</svg>
