<?xml version="1.0" encoding="utf-8"?>
<!-- Generator: Adobe Illustrator 23.0.4, SVG Export Plug-In . SVG Version: 6.00 Build 0)  -->
<svg version="1.1" id="Capa_1" xmlns="http://www.w3.org/2000/svg" xmlns:xlink="http://www.w3.org/1999/xlink" x="0px" y="0px"
	 viewBox="0 0 550 317" style="enable-background:new 0 0 550 317;" xml:space="preserve">
<style type="text/css">
	.st0{fill:#737173;}
	.st1{fill:#FFFFFF;}
	.st2{fill:none;stroke:#FFFFFF;stroke-width:0.5;stroke-miterlimit:10;}
	.st3{opacity:0.1;clip-path:url(#SVGID_2_);fill:#FFFFFF;}
	.st4{clip-path:url(#SVGID_4_);}
	.st5{opacity:0.1;fill:#FFFFFF;}
	.st6{fill:#693776;}
	.st7{fill:#B65285;}
	.st8{opacity:0.1;clip-path:url(#SVGID_6_);fill:#FFFFFF;}
	.st9{opacity:0.1;clip-path:url(#SVGID_8_);fill:#FFFFFF;}
	.st10{opacity:0.5;fill:#B65285;}
	.st11{opacity:0.5;fill:#693776;}
</style>
<g>
	<path class="st0" d="M97.8,158.9c-0.3-1.8-0.4-15.5-0.5-32.4c-4.7-3.6-10.9-6.6-19.4-8.5L55,112.9c-8.7-2-18.8-4.6-18.8-13
		c0-8.4,7-14.2,19.7-14.3c25.6-0.1,23.3,17.8,36,17.8c1.9,0,3.6-0.4,5.3-1c0-8.4,0-16.5-0.1-23.9C88.1,70,72,64.5,57.6,64.6
		C34.4,64.7,9.7,74.8,9.8,101.5c0,12.9,4.6,26.6,29.5,32.8l31,7.7c9.4,2.3,11.7,7.7,11.7,12.5c0,8-7.8,15.9-22,16
		c-27.8,0.1-24-21.6-38.9-21.6c-6.7,0-11.5,4.7-11.5,11.4c0,13,15.6,30.4,50.4,30.3c19.6-0.1,33.2-5.9,41.1-15.1
		C99,168.1,98.2,161.6,97.8,158.9z"/>
	<g>
		<path class="st1" d="M428.4,81.7c0-12.2,6.3-16.1,16-16.1l45.6-0.2c32.6-0.1,41.4,17.7,41.4,33.3c0,13-7.6,25.9-20.6,29l0,0.3
			c14.1,2,16.6,12.1,16.6,24.4c0,13.9,3.7,19,3.8,24.7c0,6.4-6.5,10.7-12.8,10.7c-15.1,0.1-16.3-14.5-16.3-19.3
			c-0.1-21.1-3.9-29.6-19-29.5l-27.1,0.1l0.1,35.3c0,8.2-5.3,13.7-13.7,13.7c-8.4,0-13.7-5.5-13.8-13.7L428.4,81.7z M455.9,119
			l27.4-0.1c10.4,0,20.7-2.7,20.7-16.3c0-12.9-7.9-16.2-19.9-16.1l-28.2,0.1L455.9,119z"/>
	</g>
	<g>
		<path class="st1" d="M25.3,266.9c5.3,0.9,8,3.9,8,8.7c0,2.7-0.9,4.8-2.8,6.5c-1.9,1.6-4.2,2.5-7,2.7c-1,0.1-2.2,0.2-3.8,0.2
			l-10.4,0l-0.1-34.2l9.4,0c1.6,0,3,0,4.2,0.1c2.8,0.2,5,1,6.6,2.5c1.6,1.4,2.4,3.3,2.4,5.7c0,2.1-0.6,3.8-1.8,5.2
			C29.1,265.6,27.4,266.5,25.3,266.9z M11.3,252.5l0,13.9l8.2,0c0.4,0,1.3,0,2.9-0.1c2.1-0.2,3.9-0.8,5.3-1.9c1.4-1.1,2.1-2.8,2.1-5
			c0-2.3-0.7-4-2.2-5.1c-1.4-1.1-3.3-1.7-5.5-1.8c-0.8,0-1.9,0-3.3,0L11.3,252.5z M23,283.3c2.3-0.2,4.3-0.9,5.9-2.1
			c1.6-1.3,2.4-3,2.4-5.3c0-2.2-0.7-4-2-5.4c-1.3-1.4-3.4-2.2-6.2-2.3c-0.8-0.1-1.7-0.1-2.8-0.1l-8.9,0l0.1,15.4l9.2,0
			C21.3,283.4,22.1,283.3,23,283.3z"/>
		<path class="st1" d="M68.3,258.8l0.1,26.1l-2,0l0-5.6l-1.2,2.7c-2.1,2.4-4.8,3.6-8.2,3.6c-2.7,0-4.9-0.7-6.6-2
			c-1.7-1.4-2.6-3.2-3-5.6c-0.1-1.2-0.2-2.6-0.2-4.4l-0.1-14.8l2,0l0,14.3c0,1.6,0.1,2.9,0.2,4.1c0.3,2.1,1.1,3.8,2.4,5
			c1.3,1.2,3.1,1.8,5.4,1.8c2.6,0,4.8-0.9,6.5-2.7c1.8-1.8,2.6-4.5,2.6-8l-0.1-14.5L68.3,258.8z"/>
		<path class="st1" d="M92,258c2.8,0,5,0.7,6.6,2.1c1.6,1.4,2.6,3.3,3,5.7l-2,0c-1.1-4.2-3.6-6.3-7.6-6.3c-1.9,0-3.4,0.5-4.7,1.5
			c-1.3,1-1.9,2.3-1.9,4c0,1.6,0.6,2.8,1.8,3.6c1.2,0.8,2.9,1.5,5.3,2c3.3,0.7,5.7,1.7,7.2,2.8c1.5,1.2,2.2,2.8,2.3,4.9
			c0,2.1-0.9,3.8-2.6,5.1c-1.8,1.3-4,1.9-6.8,1.9c-2.8,0-5.1-0.7-7-2.1c-1.9-1.4-3-3.5-3.3-6.3l2,0c0.8,4.6,3.6,6.8,8.4,6.8
			c2.1,0,3.8-0.5,5.2-1.4c1.4-0.9,2.1-2.2,2.1-3.9c0-1.7-0.6-2.9-1.8-3.8c-1.2-0.9-3.3-1.7-6.4-2.4c-2.6-0.6-4.6-1.4-6.1-2.5
			c-1.5-1.1-2.2-2.6-2.2-4.7c0-2.1,0.8-3.8,2.4-5.2C87.3,258.7,89.4,258,92,258z"/>
		<path class="st1" d="M115.7,252.1c0.3-0.3,0.7-0.4,1.1-0.4c0.4,0,0.8,0.1,1.1,0.4c0.3,0.3,0.4,0.6,0.4,1c0,0.4-0.1,0.7-0.4,1
			c-0.3,0.3-0.7,0.4-1.1,0.4c-0.4,0-0.8-0.1-1.1-0.4c-0.3-0.3-0.4-0.6-0.4-1C115.3,252.8,115.4,252.4,115.7,252.1z M117.9,284.7
			l-2,0l-0.1-26.1l2,0L117.9,284.7z"/>
		<path class="st1" d="M154.9,265.7c0.1,1.2,0.2,2.6,0.2,4.3l0.1,14.6l-2,0l0-14.1c0-1.6-0.1-3-0.2-4.2c-0.3-2.1-1-3.8-2.3-5
			c-1.3-1.2-3.1-1.8-5.5-1.8c-2.6,0-4.8,0.9-6.6,2.7c-1.8,1.8-2.6,4.5-2.6,8l0.1,14.5l-2,0l-0.1-26.1l2,0l0,5.6l1.2-2.7
			c2-2.4,4.7-3.6,8.2-3.6c2.8,0,5,0.7,6.7,2.1C153.6,261.2,154.6,263.2,154.9,265.7z"/>
		<path class="st1" d="M192.6,270.7c0,0.4,0,0.8,0,1.2l-21.8,0.1c0.1,3.9,1.2,6.9,3.1,8.8c1.9,1.9,4.2,2.9,6.9,2.9
			c2.2,0,4.2-0.6,5.9-1.9c1.7-1.2,2.9-3,3.5-5.4l2,0c-0.7,2.8-2.1,5-4.2,6.6c-2.1,1.5-4.6,2.3-7.3,2.3c-3.4,0-6.3-1.2-8.6-3.6
			c-2.3-2.4-3.4-5.8-3.4-10.2c0-4.1,1.2-7.4,3.5-9.9c2.4-2.5,5.3-3.8,8.9-3.8c3.7,0,6.5,1.2,8.5,3.8
			C191.6,264,192.6,267,192.6,270.7z M180.9,259.3c-2.6,0-5,1-7,2.9c-2,1.9-3.1,4.6-3.2,8.2l19.9-0.1c-0.2-3.8-1.2-6.5-3-8.3
			C185.8,260.1,183.5,259.3,180.9,259.3z"/>
		<path class="st1" d="M214.4,257.6c2.8,0,5,0.7,6.6,2.1c1.6,1.4,2.6,3.3,3,5.7l-2,0c-1.1-4.2-3.6-6.3-7.6-6.3
			c-1.9,0-3.4,0.5-4.7,1.5c-1.3,1-1.9,2.3-1.9,4c0,1.6,0.6,2.8,1.8,3.6c1.2,0.8,2.9,1.5,5.3,2c3.3,0.7,5.7,1.7,7.2,2.8
			c1.5,1.2,2.2,2.8,2.3,4.9c0,2.1-0.9,3.8-2.6,5.1c-1.8,1.3-4,1.9-6.8,1.9c-2.8,0-5.2-0.7-7-2.1c-1.9-1.4-3-3.5-3.3-6.3l2,0
			c0.8,4.6,3.6,6.8,8.5,6.8c2.1,0,3.8-0.5,5.2-1.4c1.4-0.9,2.1-2.2,2.1-3.9c0-1.7-0.6-2.9-1.8-3.8c-1.2-0.9-3.3-1.7-6.4-2.4
			c-2.6-0.6-4.6-1.4-6.1-2.5c-1.5-1.1-2.2-2.6-2.2-4.7c0-2.1,0.8-3.8,2.4-5.2C209.7,258.2,211.8,257.6,214.4,257.6z"/>
		<path class="st1" d="M245.8,257.5c2.8,0,5,0.7,6.6,2.1c1.6,1.4,2.6,3.3,3,5.7l-2,0c-1.1-4.2-3.6-6.3-7.6-6.3
			c-1.9,0-3.4,0.5-4.7,1.5c-1.3,1-1.9,2.3-1.9,4c0,1.6,0.6,2.8,1.8,3.6c1.2,0.8,3,1.5,5.3,2c3.3,0.7,5.7,1.7,7.2,2.8
			c1.5,1.2,2.2,2.8,2.3,4.9c0,2.1-0.9,3.8-2.6,5.1c-1.8,1.3-4,1.9-6.8,1.9c-2.8,0-5.2-0.7-7-2.1c-1.9-1.4-3-3.5-3.3-6.3l2,0
			c0.8,4.6,3.6,6.8,8.5,6.8c2.1,0,3.8-0.5,5.2-1.4c1.4-0.9,2.1-2.2,2.1-3.9c0-1.7-0.6-2.9-1.8-3.8c-1.2-0.9-3.3-1.7-6.4-2.4
			c-2.6-0.6-4.6-1.4-6.1-2.5c-1.5-1.1-2.2-2.6-2.2-4.7c0-2.1,0.8-3.8,2.4-5.2C241.2,258.1,243.2,257.5,245.8,257.5z"/>
		<path class="st1" d="M299.6,249.2c3.3,0,5.9,0.9,7.8,2.7c1.9,1.8,3.1,4.1,3.4,6.9l-2.1,0c-0.4-2.5-1.4-4.5-3.1-5.9
			c-1.7-1.4-3.7-2.1-6.2-2.1c-2.4,0-4.5,0.6-6.3,1.9c-1.8,1.2-2.7,2.9-2.7,5.1c0,2.2,0.7,3.8,2.2,4.9c1.4,1.1,4,2.1,7.6,3
			c3.9,1,6.8,2.2,8.6,3.7c1.8,1.5,2.7,3.5,2.7,6.2c0,2.6-1.1,4.8-3.3,6.6c-2.2,1.8-5.1,2.6-8.5,2.7c-3.5,0-6.4-0.8-8.8-2.5
			c-2.4-1.7-3.8-4.1-4.2-7.3l2.1,0c0.4,2.6,1.6,4.6,3.6,6c2,1.4,4.5,2.1,7.3,2.1c2.8,0,5.1-0.7,6.9-2.1c1.8-1.4,2.7-3.1,2.7-5.3
			c0-2.3-0.8-4-2.2-5.2c-1.5-1.2-4.1-2.2-7.7-3.2c-3.9-1-6.7-2.1-8.5-3.5c-1.7-1.4-2.6-3.3-2.6-5.9c0-2.5,1.1-4.7,3.3-6.3
			C293.8,250,296.5,249.2,299.6,249.2z"/>
		<path class="st1" d="M327.5,261c2.4-2.5,5.5-3.8,9.5-3.8c4,0,7.2,1.2,9.5,3.8c2.4,2.5,3.6,5.8,3.6,9.9c0,4.1-1.2,7.4-3.5,9.9
			c-2.3,2.6-5.5,3.8-9.5,3.8c-4,0-7.2-1.2-9.5-3.8c-2.4-2.5-3.6-5.8-3.6-9.9C324,266.9,325.2,263.5,327.5,261z M329.3,279.9
			c2.1,2.1,4.7,3.2,7.8,3.1c3.1,0,5.7-1.1,7.8-3.2c2.1-2.1,3.1-5.1,3.1-9c0-3.9-1.1-6.8-3.2-9c-2.1-2.1-4.7-3.2-7.8-3.2
			c-3.1,0-5.7,1.1-7.7,3.2c-2.1,2.1-3.1,5.1-3.1,9C326.2,274.8,327.3,277.8,329.3,279.9z"/>
		<path class="st1" d="M366.4,251.6c-0.1,0.7-0.1,1.5-0.1,2.5l0,3.8l5.6,0l0,1.6l-5.6,0l0.1,24.3l-2,0l-0.1-24.3l-3,0l0-1.6l3,0
			l0-3.7c0-1.2,0-2.1,0.1-2.8c0.2-1.6,0.8-2.9,1.8-3.7c1-0.9,2.2-1.3,3.6-1.3c0.9,0,1.8,0.1,2.6,0.2l0,1.6c-1.9-0.4-3.3-0.3-4.3,0.3
			C367.2,249.3,366.6,250.3,366.4,251.6z"/>
		<path class="st1" d="M388.3,279.7c0.1,1.3,0.5,2.2,1.3,2.6c0.7,0.4,2.1,0.4,4,0.2l0,1.5c-0.8,0.1-1.8,0.2-2.9,0.2
			c-2.7,0-4.1-1.2-4.3-3.7c-0.1-0.7-0.1-1.9-0.1-3.5l-0.1-17.6l-3.4,0l0-1.5l3.4,0l0-5.5l2,0l0,5.5l5.3,0l0,1.5l-5.3,0l0.1,17.7
			C388.2,278.4,388.2,279.2,388.3,279.7z"/>
		<path class="st1" d="M441,257.5l-8.6,26.1l-2.4,0l-7.5-24.1l-7.3,24.1l-2.7,0l-8.8-26.1l2.3,0l7.9,24.2l7.3-24.2l2.6,0l7.5,24.1
			l7.5-24.2L441,257.5z"/>
		<path class="st1" d="M470.8,283.5l-0.4-5.7l-1.3,2.6c-1.9,2.5-4.6,3.8-8.3,3.8c-2.6,0-4.7-0.6-6.3-1.8c-1.6-1.2-2.3-3-2.3-5.3
			c0-2.9,1.5-5.1,4.6-6.6c3-1.5,7-2.3,11.8-2.3l1.8,0l0-1.2c0-1.5,0-2.6-0.1-3.3c-0.2-1.8-0.9-3.1-2-4.1c-1.2-0.9-2.8-1.4-5-1.4
			c-2,0-3.8,0.6-5.3,1.6c-1.5,1.1-2.3,2.7-2.6,4.9l-2,0c0.2-2.3,1.2-4.3,3-5.8c1.8-1.5,4.1-2.3,6.9-2.3c5.5,0,8.6,2.3,9,6.9
			c0.1,0.9,0.1,2,0.1,3.4l0,8.5c0,2,0.2,4.7,0.5,8L470.8,283.5z M461.3,282.6c2.7,0,4.8-0.9,6.5-2.7c1.7-1.8,2.5-4,2.5-6.7l0-3.4
			c-2.8-0.2-5.3,0-7.7,0.4c-2.3,0.4-4.3,1.2-5.9,2.4c-1.6,1.2-2.4,2.6-2.4,4.4c0,1.8,0.6,3.2,1.8,4.2
			C457.3,282.1,459,282.6,461.3,282.6z"/>
		<path class="st1" d="M497.3,256.6c0.5,0,1,0,1.4,0.1l0,1.5c-2.6-0.2-4.7,0.6-6.2,2.4c-1.5,1.8-2.2,4.5-2.2,8.3l0.1,14.5l-2,0
			l-0.1-26.1l2,0l0,5.3l1.4-3.2C493.1,257.5,495,256.6,497.3,256.6z"/>
		<path class="st1" d="M532.7,269.5c0,0.4,0,0.8-0.1,1.2l-21.8,0.1c0.2,3.9,1.2,6.9,3.1,8.8c1.9,1.9,4.2,2.9,6.9,2.9
			c2.2,0,4.2-0.6,5.9-1.9c1.7-1.2,2.9-3,3.5-5.4l2,0c-0.7,2.8-2.1,5-4.2,6.6c-2.1,1.5-4.5,2.3-7.3,2.3c-3.4,0-6.3-1.2-8.6-3.6
			c-2.3-2.4-3.4-5.8-3.4-10.2c0-4.1,1.2-7.4,3.5-9.9c2.4-2.5,5.3-3.8,8.8-3.8c3.7,0,6.5,1.2,8.5,3.8
			C531.6,262.8,532.7,265.9,532.7,269.5z M521,258.1c-2.6,0-5,1-7,2.9c-2,1.9-3.1,4.6-3.2,8.2l19.9-0.1c-0.2-3.8-1.2-6.5-3-8.3
			C525.8,259,523.6,258.1,521,258.1z"/>
	</g>
	<path class="st1" d="M252.9,8.1c-9.9,0-17.8,7.7-18.5,17.4c0.2,0.9,0.5,1.4,0.9,1.8c0.5,0.3,1,0.5,1.7,0.6c0.4-0.1,0.7-0.2,1.1-0.4
		c4.6-3.4,8.4-5.5,13.6-6.1c0.3-0.1,0.6-0.1,0.9-0.1c0.6,0,1.1-0.2,1.8-0.2c0.1,0,0.2-0.1,0.3-0.1c0.1,0,0.1,0,0.2,0
		c0.1,0,0.1,0,0.2,0c0.1,0,0.3,0.1,0.5,0.1c4.3,0.2,8.1,1.8,12.2,3c2.1,0.6,3-0.1,3.3-1.4C269.3,14.3,261.9,8.1,252.9,8.1z"/>
	<path class="st1" d="M160.1,18.3c0,6.6-5.7,11.9-12.7,12c-7,0-12.7-5.3-12.8-11.9c0-6.6,5.6-11.9,12.7-12
		C154.4,6.4,160.1,11.7,160.1,18.3z"/>
	<line class="st2" x1="10" y1="232.8" x2="531.8" y2="231"/>
	<g>
		<defs>
			<path id="SVGID_1_" d="M100.1,129c-4.9-4.8-11.9-8.7-22.2-11L55,112.9c-8.7-2-18.8-4.6-18.8-13c0-8.4,7-14.2,19.7-14.3
				c25.6-0.1,23.3,17.8,36,17.8c2.9,0,5.6-0.9,7.8-2.4c-0.2-3.4-0.2-18.8-0.1-20.2C91.1,71,73.4,64.5,57.6,64.6
				C34.4,64.7,9.7,74.8,9.8,101.5c0,12.9,4.6,26.6,29.5,32.8l31,7.7c9.4,2.3,11.7,7.7,11.7,12.5c0,8-7.8,15.9-22,16
				c-27.8,0.1-24-21.6-38.9-21.6c-6.7,0-11.5,4.7-11.5,11.4c0,13,15.6,30.4,50.4,30.3c21.3-0.1,35.6-6.9,43-17.5
				C99.9,166.2,97.6,142.2,100.1,129z"/>
		</defs>
		<use xlink:href="#SVGID_1_"  style="overflow:visible;fill:#FFFFFF;"/>
		<clipPath id="SVGID_2_">
			<use xlink:href="#SVGID_1_"  style="overflow:visible;"/>
		</clipPath>
		<polygon class="st3" points="108,112.2 -3.1,191.6 108.8,191.2 		"/>
	</g>
	<path class="st1" d="M405.9,65.7l-7.7,0c-8.5,0-12.5,3.4-15.3,12.6l-23.3,77.3l-0.3,0l-24.2-77.1c-2.9-9.2-6.9-12.5-15.4-12.5l-8,0
		c-2.9,0-5.9,0.5-8.4,1.7c0.3,29.6,0.8,86.5,0.3,90.3c-0.5,3.9,0.9,10.1-6,22c0.8,5.8,4.2,10.7,11.9,10.7c8.9,0,12.2-6.6,12.2-13.4
		l-0.3-74.5l0.3,0l25.9,79.8c1.8,5.7,6,8,11.7,8c5.7,0,9.9-2.4,11.7-8.1l25.3-80l0.3,0l0.3,74.5c0,6.9,3.4,13.4,12.3,13.3
		c8.9,0,12.2-6.6,12.1-13.4l-0.3-97.8C420.8,68.2,413.3,65.7,405.9,65.7z"/>
	<g>
		<defs>
			<path id="SVGID_3_" d="M297,79.6c0-11,7.5-13.6,14.8-13.6l8,0c8.5,0,12.5,3.3,15.4,12.5l24.2,77.1l0.3,0l23.3-77.3
				c2.8-9.2,6.8-12.6,15.3-12.6l7.7,0c7.4,0,14.9,2.5,14.9,13.5l0.3,97.8c0,6.9-3.3,13.4-12.1,13.4c-8.9,0-12.2-6.5-12.3-13.3
				l-0.3-74.5l-0.3,0l-25.3,80c-1.8,5.7-6,8-11.7,8.1c-5.7,0-9.9-2.3-11.7-8l-25.9-79.8l-0.3,0l0.3,74.5c0,6.9-3.3,13.4-12.2,13.4
				c-8.9,0-12.2-6.5-12.2-13.3L297,79.6z"/>
		</defs>
		<clipPath id="SVGID_4_">
			<use xlink:href="#SVGID_3_"  style="overflow:visible;"/>
		</clipPath>
		<g class="st4">
			<path class="st5" d="M302.4,110.1c0.4,10.1,0.8,20.1,1.2,30.2c0.6,15,0.8,29.1-7,42.3c-0.8,1.4-1.9,2.4-2.9,3.2l-0.1,26.7
				l183.7-0.6L302.4,110.1z"/>
		</g>
	</g>
	<path class="st6" d="M290.5,64.5c0,0-3.7-24.7-30.4-24.4c-26.8,0.3-27.8,29.1-27.8,29.1s0,0.5,0.1,1.3
		c12.2,24.6,23.7,52.4,23.7,69.4c0.1,22.9-13.3,42.6-32.5,51.3c-2.6,4.4-5.9,8.9-10.1,13.3c-5.1,4.5-10.9,8-17.3,10.5
		c-1.9,0.8-3.9,1.4-5.9,2c-2,0.6-4.1,1-6.2,1.3l-7.4,1.3c10.2,0.9,72.4,9.9,100.3-23.6c16.1-19.2,13.5-27.5,14.1-32.3
		C291.7,158.8,290.5,64.5,290.5,64.5z"/>
	<path class="st7" d="M202,195.9c-29.9,0.1-54.4-24.9-54.5-55.7c0-11.6,8.2-37.8,18-64.7l0-6c0,0-0.1-1.2-0.3-3
		c-1.2-7.3-6.2-25.9-27.6-25.9c-26.8-0.1-30.3,24.6-30.3,24.6s0,94.3,0.7,99.1c0.7,4.8,2.6,22.4,12.5,33.6
		c17.9,20.1,38.5,21.1,52.6,19.8c13.8-1.2,33.4-10,44.1-24.3C212.3,194.8,207.3,195.9,202,195.9z"/>
	<g>
		<defs>
			<path id="SVGID_5_" d="M290.5,61.2c0,0-3.6-21.3-30.4-21c-26.8,0.3-27.9,25.1-27.9,25.1s0,0.4,0.1,1.1
				c12.2,21.2,23.6,45.1,23.7,59.7c0.1,19.7-13.4,36.7-32.6,44.2c-2.6,3.8-5.9,7.7-10.1,11.4c-5.1,3.9-10.9,6.9-17.3,9.1
				c-1.9,0.7-3.9,1.2-5.9,1.7c-2,0.5-4.1,0.8-6.2,1.1l-7.4,1.1c10.2,0.8,72.3,8.5,100.3-20.4c16.1-16.6,13.5-23.7,14.1-27.8
				C291.6,142.4,290.5,61.2,290.5,61.2z"/>
		</defs>
		<clipPath id="SVGID_6_">
			<use xlink:href="#SVGID_5_"  style="overflow:visible;"/>
		</clipPath>
		<polygon class="st8" points="339.5,52.3 159.4,204.5 235.4,204.3 		"/>
		<polygon class="st8" points="166.5,42.6 466.9,193.2 271.6,193.9 		"/>
	</g>
	<g>
		<defs>
			<path id="SVGID_7_" d="M202,195.9c-29.9,0.1-54.4-24.9-54.5-55.7c0-11.6,8.2-37.8,18-64.7l0-6c0,0-0.1-1.2-0.3-3
				c-1.2-7.3-6.2-25.9-27.6-25.9c-26.8-0.1-30.3,24.6-30.3,24.6s0,94.3,0.7,99.1c0.7,4.8,2.6,22.4,12.5,33.6
				c17.9,20.1,38.5,21.1,52.6,19.8c13.8-1.2,33.4-10,44.1-24.3C212.3,194.8,207.3,195.9,202,195.9z"/>
		</defs>
		<clipPath id="SVGID_8_">
			<use xlink:href="#SVGID_7_"  style="overflow:visible;"/>
		</clipPath>
		<polygon class="st9" points="67.5,129.6 292.9,60.8 211.2,238.2 		"/>
		<polygon class="st9" points="109,52.8 266.4,228.2 71.1,228.9 		"/>
	</g>
	<path class="st10" d="M127.4,170.7c1.3-38.3,9.8-78,37.4-106.2c-1.7-8.2-7.4-24-27.2-24c-26.8-0.1-30.3,24.6-30.3,24.6
		s0,94.3,0.7,99.1c0.7,4.8,2.6,22.4,12.5,33.6c2.5,2.8,5,5.1,7.5,7.2C127.3,193.6,127,182.2,127.4,170.7z"/>
	<path class="st11" d="M290.5,64.5c0,0-3.6-24.7-30.4-24.4c-21.8,0.2-26.5,19.1-27.5,26.2c32.5,30.8,50.1,84.6,43.4,130.4
		c0.3-0.3,0.6-0.5,0.8-0.9c16.1-19.2,13.5-27.5,14.1-32.3C291.6,158.8,290.5,64.5,290.5,64.5z"/>
</g>
<g>
</g>
<g>
</g>
<g>
</g>
<g>
</g>
<g>
</g>
<g>
</g>
<g>
</g>
<g>
</g>
<g>
</g>
<g>
</g>
<g>
</g>
<g>
</g>
<g>
</g>
<g>
</g>
<g>
</g>
</svg>
