<?xml version="1.0" encoding="utf-8"?>
<!-- Generator: Adobe Illustrator 23.0.4, SVG Export Plug-In . SVG Version: 6.00 Build 0)  -->
<svg version="1.1" id="Capa_1" xmlns="http://www.w3.org/2000/svg" xmlns:xlink="http://www.w3.org/1999/xlink" x="0px" y="0px"
	 viewBox="0 0 300 160" style="enable-background:new 0 0 300 160;" xml:space="preserve">
<style type="text/css">
	.st0{fill:#737072;}
	.st1{fill:#5D5B5C;}
	.st2{fill:none;stroke:#989899;stroke-width:0.5;stroke-miterlimit:10;}
	.st3{opacity:0.1;clip-path:url(#SVGID_2_);fill:#FFFFFF;}
	.st4{clip-path:url(#SVGID_4_);}
	.st5{opacity:0.1;fill:#FFFFFF;}
	.st6{fill:#693776;}
	.st7{fill:#B65284;}
	.st8{opacity:0.1;clip-path:url(#SVGID_6_);fill:#FFFFFF;}
	.st9{opacity:0.1;clip-path:url(#SVGID_8_);fill:#FFFFFF;}
	.st10{opacity:0.5;fill:#B65284;}
	.st11{opacity:0.5;fill:#693776;}
</style>
<g>
	<path class="st0" d="M53.3,89.7c-0.1-1-0.2-8.6-0.2-18.1c-2.6-2-6.1-3.7-10.8-4.8l-12.8-2.9C24.6,62.8,19,61.3,19,56.6
		c0-4.7,3.9-7.9,11-7.9c14.3,0,13,10,20.1,10c1.1,0,2-0.2,3-0.6c0-4.7,0-9.2,0-13.4c-5-4.7-14-7.8-22.1-7.8
		c-13,0-26.8,5.6-26.8,20.6c0,7.2,2.5,14.9,16.4,18.4L38,80.2c5.2,1.3,6.5,4.3,6.5,7c0,4.5-4.4,8.9-12.3,8.9
		C16.7,96.1,18.8,84,10.5,84C6.7,84,4,86.6,4,90.3c0,7.3,8.7,17,28.1,17c11,0,18.6-3.2,23-8.4C54,94.9,53.5,91.2,53.3,89.7z"/>
	<g>
		<path class="st0" d="M238.3,47.2c0-6.8,3.5-9,9-9h25.5c18.2,0,23.1,10,23.1,18.7c0,7.3-4.3,14.5-11.6,16.2v0.2
			c7.9,1.1,9.3,6.8,9.3,13.7c0,7.8,2.1,10.7,2.1,13.8c0,3.6-3.6,6-7.2,6c-8.4,0-9.1-8.1-9.1-10.8c0-11.8-2.2-16.5-10.6-16.5h-15.1
			v19.7c0,4.6-3,7.7-7.7,7.7c-4.7,0-7.7-3.1-7.7-7.7V47.2z M253.7,68.1H269c5.8,0,11.6-1.5,11.6-9.1c0-7.2-4.4-9.1-11.1-9.1h-15.8
			V68.1z"/>
	</g>
	<g>
		<path class="st0" d="M12.6,145c3,0.5,4.5,2.2,4.5,4.9c0,1.5-0.5,2.7-1.6,3.6c-1,0.9-2.3,1.4-3.9,1.5c-0.5,0.1-1.3,0.1-2.1,0.1H3.7
			V136H9c0.9,0,1.7,0,2.4,0.1c1.6,0.1,2.8,0.6,3.7,1.4c0.9,0.8,1.3,1.9,1.3,3.2c0,1.2-0.3,2.1-1,2.9C14.7,144.2,13.8,144.7,12.6,145
			z M4.8,136.9v7.8h4.6c0.2,0,0.7,0,1.6-0.1c1.2-0.1,2.2-0.4,3-1.1c0.8-0.6,1.2-1.5,1.2-2.8c0-1.3-0.4-2.2-1.2-2.8
			c-0.8-0.6-1.8-0.9-3.1-1c-0.4,0-1,0-1.8,0H4.8z M11.3,154.1c1.3-0.1,2.4-0.5,3.3-1.2c0.9-0.7,1.3-1.7,1.3-3c0-1.2-0.4-2.3-1.1-3
			c-0.7-0.8-1.9-1.2-3.5-1.3c-0.5,0-1-0.1-1.5-0.1h-5v8.6h5.1C10.3,154.2,10.8,154.2,11.3,154.1z"/>
		<path class="st0" d="M36.7,140.5v14.6h-1.1V152l-0.7,1.5c-1.2,1.3-2.7,2-4.6,2c-1.5,0-2.8-0.4-3.7-1.1c-0.9-0.8-1.5-1.8-1.6-3.1
			c-0.1-0.7-0.1-1.5-0.1-2.4v-8.3h1.1v8c0,0.9,0,1.6,0.1,2.3c0.2,1.2,0.6,2.1,1.3,2.8c0.7,0.7,1.7,1,3,1c1.5,0,2.7-0.5,3.7-1.5
			c1-1,1.5-2.5,1.5-4.5v-8.1H36.7z"/>
		<path class="st0" d="M49.9,140.1c1.6,0,2.8,0.4,3.7,1.2c0.9,0.8,1.4,1.9,1.7,3.2h-1.1c-0.6-2.3-2-3.5-4.2-3.5
			c-1,0-1.9,0.3-2.6,0.8c-0.7,0.6-1.1,1.3-1.1,2.2c0,0.9,0.3,1.6,1,2c0.7,0.5,1.6,0.9,3,1.1c1.8,0.4,3.2,0.9,4,1.6
			c0.8,0.7,1.3,1.6,1.3,2.8c0,1.2-0.5,2.2-1.5,2.9c-1,0.7-2.3,1.1-3.8,1.1c-1.6,0-2.9-0.4-3.9-1.2c-1-0.8-1.7-2-1.8-3.5h1.1
			c0.4,2.5,2,3.8,4.7,3.8c1.2,0,2.1-0.3,2.9-0.8c0.8-0.5,1.2-1.3,1.2-2.2c0-0.9-0.3-1.6-1-2.1c-0.7-0.5-1.9-0.9-3.6-1.3
			c-1.5-0.3-2.6-0.8-3.4-1.4c-0.8-0.6-1.2-1.5-1.2-2.6c0-1.2,0.5-2.1,1.4-2.9C47.3,140.5,48.5,140.1,49.9,140.1z"/>
		<path class="st0" d="M63.2,136.9c0.2-0.2,0.4-0.2,0.6-0.2c0.2,0,0.4,0.1,0.6,0.2c0.2,0.2,0.2,0.3,0.2,0.6c0,0.2-0.1,0.4-0.2,0.6
			c-0.2,0.2-0.4,0.2-0.6,0.2c-0.2,0-0.4-0.1-0.6-0.2c-0.2-0.2-0.2-0.3-0.2-0.6C62.9,137.2,63,137,63.2,136.9z M64.3,155.1h-1.1
			v-14.6h1.1V155.1z"/>
		<path class="st0" d="M85,144.5c0.1,0.7,0.1,1.5,0.1,2.4v8.1h-1.1v-7.9c0-0.9,0-1.7-0.1-2.4c-0.1-1.2-0.6-2.1-1.3-2.8
			c-0.7-0.7-1.7-1-3-1c-1.5,0-2.7,0.5-3.7,1.5c-1,1-1.5,2.5-1.5,4.5v8.1h-1.1v-14.6h1.1v3.1l0.7-1.5c1.1-1.3,2.7-2,4.6-2
			c1.6,0,2.8,0.4,3.7,1.2C84.4,142,84.9,143.1,85,144.5z"/>
		<path class="st0" d="M106.2,147.4c0,0.2,0,0.4,0,0.7H93.9c0.1,2.2,0.7,3.8,1.7,4.9c1.1,1.1,2.4,1.6,3.9,1.6c1.2,0,2.3-0.3,3.3-1
			c1-0.7,1.6-1.7,2-3h1.1c-0.4,1.6-1.2,2.8-2.4,3.7c-1.2,0.8-2.5,1.3-4.1,1.3c-1.9,0-3.5-0.7-4.8-2c-1.3-1.3-1.9-3.2-1.9-5.7
			c0-2.3,0.7-4.1,2-5.5c1.3-1.4,3-2.1,5-2.1c2,0,3.6,0.7,4.8,2.1C105.6,143.6,106.2,145.4,106.2,147.4z M99.6,141
			c-1.5,0-2.8,0.5-3.9,1.6c-1.1,1.1-1.7,2.6-1.8,4.6H105c-0.1-2.1-0.6-3.7-1.7-4.7C102.3,141.5,101.1,141,99.6,141z"/>
		<path class="st0" d="M118.3,140.1c1.6,0,2.8,0.4,3.7,1.2c0.9,0.8,1.4,1.9,1.7,3.2h-1.1c-0.6-2.3-2-3.5-4.2-3.5
			c-1,0-1.9,0.3-2.6,0.8c-0.7,0.6-1.1,1.3-1.1,2.2c0,0.9,0.3,1.6,1,2c0.7,0.5,1.6,0.9,3,1.1c1.8,0.4,3.2,0.9,4,1.6
			c0.8,0.7,1.3,1.6,1.3,2.8c0,1.2-0.5,2.2-1.5,2.9c-1,0.7-2.3,1.1-3.8,1.1c-1.6,0-2.9-0.4-3.9-1.2c-1-0.8-1.7-2-1.8-3.5h1.1
			c0.4,2.5,2,3.8,4.7,3.8c1.2,0,2.1-0.3,2.9-0.8c0.8-0.5,1.2-1.3,1.2-2.2c0-0.9-0.3-1.6-1-2.1c-0.7-0.5-1.9-0.9-3.6-1.3
			c-1.5-0.3-2.6-0.8-3.4-1.4c-0.8-0.6-1.2-1.5-1.2-2.6c0-1.2,0.5-2.1,1.4-2.9C115.7,140.5,116.9,140.1,118.3,140.1z"/>
		<path class="st0" d="M135.9,140.1c1.6,0,2.8,0.4,3.7,1.2c0.9,0.8,1.4,1.9,1.7,3.2h-1.1c-0.6-2.3-2-3.5-4.2-3.5
			c-1,0-1.9,0.3-2.6,0.8c-0.7,0.6-1.1,1.3-1.1,2.2c0,0.9,0.3,1.6,1,2c0.7,0.5,1.6,0.9,3,1.1c1.8,0.4,3.2,0.9,4,1.6
			c0.8,0.7,1.3,1.6,1.3,2.8c0,1.2-0.5,2.2-1.5,2.9c-1,0.7-2.3,1.1-3.8,1.1c-1.6,0-2.9-0.4-3.9-1.2c-1-0.8-1.7-2-1.8-3.5h1.1
			c0.4,2.5,2,3.8,4.7,3.8c1.2,0,2.1-0.3,2.9-0.8c0.8-0.5,1.2-1.3,1.2-2.2c0-0.9-0.3-1.6-1-2.1c-0.7-0.5-1.9-0.9-3.6-1.3
			c-1.4-0.3-2.6-0.8-3.4-1.4c-0.8-0.6-1.2-1.5-1.2-2.6c0-1.2,0.5-2.1,1.4-2.9C133.3,140.5,134.5,140.1,135.9,140.1z"/>
		<path class="st0" d="M166,135.6c1.8,0,3.3,0.5,4.4,1.5c1.1,1,1.7,2.3,1.9,3.9h-1.2c-0.2-1.4-0.8-2.5-1.7-3.3
			c-0.9-0.8-2.1-1.2-3.5-1.2c-1.3,0-2.5,0.3-3.5,1c-1,0.7-1.5,1.6-1.5,2.8c0,1.2,0.4,2.1,1.2,2.7c0.8,0.6,2.2,1.2,4.2,1.7
			c2.2,0.6,3.8,1.2,4.8,2.1c1,0.8,1.5,2,1.5,3.5c0,1.5-0.6,2.7-1.9,3.7c-1.3,1-2.8,1.5-4.7,1.5c-2,0-3.6-0.5-4.9-1.4
			c-1.3-0.9-2.1-2.3-2.3-4.1h1.2c0.2,1.4,0.9,2.6,2,3.4c1.1,0.8,2.5,1.2,4.1,1.2c1.6,0,2.8-0.4,3.9-1.1c1-0.8,1.5-1.7,1.5-2.9
			c0-1.3-0.4-2.2-1.2-2.9c-0.8-0.7-2.3-1.3-4.3-1.8c-2.2-0.6-3.8-1.2-4.7-2c-1-0.8-1.4-1.9-1.4-3.3c0-1.4,0.6-2.6,1.9-3.5
			C162.8,136.1,164.3,135.6,166,135.6z"/>
		<path class="st0" d="M181.6,142.2c1.3-1.4,3.1-2.1,5.3-2.1s4,0.7,5.3,2.1c1.3,1.4,2,3.3,2,5.6c0,2.3-0.7,4.1-2,5.5
			c-1.3,1.4-3.1,2.1-5.3,2.1s-4-0.7-5.3-2.1c-1.3-1.4-2-3.3-2-5.5C179.6,145.5,180.3,143.7,181.6,142.2z M182.6,152.8
			c1.2,1.2,2.6,1.8,4.3,1.8c1.7,0,3.2-0.6,4.3-1.8c1.2-1.2,1.8-2.9,1.8-5c0-2.2-0.6-3.8-1.8-5c-1.2-1.2-2.6-1.8-4.3-1.8
			c-1.7,0-3.2,0.6-4.3,1.8c-1.2,1.2-1.7,2.9-1.7,5C180.8,150,181.4,151.6,182.6,152.8z"/>
		<path class="st0" d="M203.4,137.1c0,0.4-0.1,0.8-0.1,1.4v2.1h3.1v0.9h-3.1v13.6h-1.1v-13.6h-1.7v-0.9h1.7v-2c0-0.7,0-1.2,0.1-1.6
			c0.1-0.9,0.4-1.6,1-2.1c0.6-0.5,1.2-0.7,2-0.7c0.5,0,1,0,1.5,0.1v0.9c-1-0.2-1.9-0.2-2.4,0.2C203.8,135.8,203.5,136.3,203.4,137.1
			z"/>
		<path class="st0" d="M215.5,152.8c0.1,0.7,0.3,1.2,0.7,1.4c0.4,0.2,1.2,0.3,2.3,0.1v0.8c-0.5,0.1-1,0.1-1.6,0.1
			c-1.5,0-2.3-0.7-2.4-2.1c0-0.4-0.1-1-0.1-1.9v-9.9h-1.9v-0.8h1.9v-3.1h1.1v3.1h3v0.8h-3v9.9C215.5,152.1,215.5,152.6,215.5,152.8z
			"/>
		<path class="st0" d="M245,140.5l-4.9,14.6h-1.3l-4.1-13.5l-4.1,13.5h-1.5l-4.9-14.6h1.3l4.4,13.6l4.1-13.5h1.5l4.2,13.5l4.2-13.5
			H245z"/>
		<path class="st0" d="M261.7,155.1l-0.2-3.2l-0.7,1.5c-1,1.4-2.6,2.1-4.6,2.1c-1.5,0-2.6-0.3-3.5-1c-0.9-0.7-1.3-1.7-1.3-3
			c0-1.6,0.9-2.8,2.6-3.7c1.7-0.8,3.9-1.3,6.6-1.3h1v-0.7c0-0.8,0-1.4-0.1-1.9c-0.1-1-0.5-1.8-1.1-2.3c-0.7-0.5-1.6-0.8-2.8-0.8
			c-1.1,0-2.1,0.3-3,0.9c-0.8,0.6-1.3,1.5-1.5,2.7h-1.1c0.1-1.3,0.7-2.4,1.7-3.2c1-0.8,2.3-1.3,3.9-1.3c3.1,0,4.8,1.3,5,3.9
			c0,0.5,0.1,1.1,0.1,1.9v4.8c0,1.1,0.1,2.6,0.3,4.5H261.7z M256.4,154.6c1.5,0,2.7-0.5,3.7-1.5c1-1,1.4-2.3,1.4-3.7v-1.9
			c-1.6-0.1-3,0-4.3,0.2c-1.3,0.2-2.4,0.7-3.3,1.3c-0.9,0.6-1.3,1.5-1.3,2.5c0,1,0.3,1.8,1,2.3C254.1,154.3,255.1,154.6,256.4,154.6
			z"/>
		<path class="st0" d="M276.5,140.1c0.3,0,0.6,0,0.8,0.1v0.9c-1.5-0.1-2.6,0.3-3.4,1.3c-0.8,1-1.3,2.5-1.3,4.7v8.1h-1.1v-14.6h1.1v3
			l0.8-1.8C274.2,140.6,275.3,140.1,276.5,140.1z"/>
		<path class="st0" d="M296.3,147.4c0,0.2,0,0.4,0,0.7h-12.2c0.1,2.2,0.7,3.8,1.7,4.9c1.1,1.1,2.4,1.6,3.8,1.6c1.2,0,2.3-0.3,3.3-1
			c1-0.7,1.6-1.7,2-3h1.1c-0.4,1.6-1.2,2.8-2.4,3.7c-1.2,0.8-2.5,1.3-4.1,1.3c-1.9,0-3.5-0.7-4.8-2c-1.3-1.3-1.9-3.2-1.9-5.7
			c0-2.3,0.7-4.1,2-5.5c1.3-1.4,3-2.1,5-2.1c2.1,0,3.6,0.7,4.8,2.1C295.7,143.6,296.3,145.4,296.3,147.4z M289.8,141
			c-1.5,0-2.8,0.5-3.9,1.6c-1.1,1.1-1.7,2.6-1.8,4.6h11.1c-0.1-2.1-0.6-3.7-1.7-4.7C292.5,141.5,291.2,141,289.8,141z"/>
	</g>
	<path class="st1" d="M140.4,5.7c-5.5,0-10,4.3-10.4,9.7c0.1,0.5,0.3,0.8,0.5,1c0.3,0.2,0.6,0.3,0.9,0.3c0.2-0.1,0.4-0.1,0.6-0.2
		c2.6-1.9,4.7-3,7.6-3.4c0.2,0,0.3,0,0.5-0.1c0.3,0,0.6-0.1,1-0.1c0.1,0,0.1,0,0.2,0c0,0,0.1,0,0.1,0c0,0,0.1,0,0.1,0
		c0.1,0,0.2,0,0.3,0c2.4,0.1,4.5,1,6.8,1.7c1.2,0.3,1.7-0.1,1.8-0.8C149.5,9.2,145.4,5.7,140.4,5.7z"/>
	<path class="st1" d="M88.5,11.2c0,3.7-3.2,6.7-7.1,6.7c-3.9,0-7.1-3-7.1-6.7c0-3.7,3.2-6.7,7.1-6.7C85.3,4.5,88.5,7.5,88.5,11.2z"
		/>
	<line class="st2" x1="4.1" y1="130.9" x2="295.9" y2="130.9"/>
	<g>
		<defs>
			<path id="SVGID_1_" d="M54.7,73c-2.7-2.7-6.6-4.9-12.4-6.2l-12.8-2.9C24.6,62.8,19,61.3,19,56.6c0-4.7,3.9-7.9,11-7.9
				c14.3,0,13,10,20.1,10c1.6,0,3.1-0.5,4.3-1.3c-0.1-1.9-0.1-10.5,0-11.3c-4.7-5.5-14.6-9.2-23.4-9.2c-13,0-26.8,5.6-26.8,20.6
				c0,7.2,2.5,14.9,16.4,18.4L38,80.2c5.2,1.3,6.5,4.3,6.5,7c0,4.5-4.4,8.9-12.3,8.9C16.7,96.1,18.8,84,10.5,84
				C6.7,84,4,86.6,4,90.3c0,7.3,8.7,17,28.1,17c11.9,0,19.9-3.8,24.1-9.7C54.5,93.8,53.2,80.3,54.7,73z"/>
		</defs>
		<clipPath id="SVGID_2_">
			<use xlink:href="#SVGID_1_"  style="overflow:visible;"/>
		</clipPath>
		<polygon class="st3" points="59.1,63.6 -3.2,107.8 59.4,107.8 		"/>
	</g>
	<path class="st0" d="M225.8,38.2h-4.3c-4.8,0-7,1.9-8.6,7l-13.2,43.2h-0.2l-13.4-43.2c-1.6-5.1-3.8-7-8.6-7h-4.5
		c-1.6,0-3.3,0.2-4.7,0.9c0.1,16.5,0.3,48.4,0,50.5c-0.3,2.2,0.5,5.7-3.4,12.3c0.4,3.2,2.3,6,6.6,6c5,0,6.8-3.6,6.8-7.5V58.8h0.2
		l14.3,44.7c1,3.2,3.4,4.5,6.5,4.5c3.2,0,5.5-1.3,6.5-4.5l14.3-44.7h0.2v41.7c0,3.8,1.9,7.5,6.8,7.5c5,0,6.8-3.6,6.8-7.5V45.8
		C234.1,39.6,229.9,38.2,225.8,38.2z"/>
	<g>
		<defs>
			<path id="SVGID_3_" d="M164.9,45.8c0-6.2,4.2-7.6,8.3-7.6h4.5c4.8,0,7,1.9,8.6,7l13.4,43.2h0.2L213,45.2c1.6-5.1,3.8-7,8.6-7h4.3
				c4.1,0,8.3,1.4,8.3,7.6v54.7c0,3.8-1.9,7.5-6.8,7.5c-5,0-6.8-3.6-6.8-7.5V58.8h-0.2l-14.3,44.7c-1,3.2-3.4,4.5-6.5,4.5
				c-3.2,0-5.5-1.3-6.5-4.5l-14.3-44.7h-0.2v41.7c0,3.8-1.9,7.5-6.8,7.5c-5,0-6.8-3.6-6.8-7.5V45.8z"/>
		</defs>
		<clipPath id="SVGID_4_">
			<use xlink:href="#SVGID_3_"  style="overflow:visible;"/>
		</clipPath>
		<g class="st4">
			<path class="st5" d="M167.8,62.8c0.2,5.6,0.4,11.3,0.6,16.9c0.3,8.4,0.4,16.3-4,23.7c-0.5,0.8-1,1.3-1.6,1.8l-0.1,14.9h102.7
				L167.8,62.8z"/>
		</g>
	</g>
	<path class="st6" d="M161.3,37.3c0,0-2-13.8-16.9-13.7c-15,0.1-15.6,16.2-15.6,16.2s0,0.3,0,0.7c6.8,13.8,13.1,29.3,13.1,38.8
		c0,12.8-7.5,23.8-18.3,28.6c-1.5,2.5-3.3,5-5.7,7.4c-2.8,2.5-6.1,4.5-9.7,5.9c-1.1,0.4-2.2,0.8-3.3,1.1c-1.1,0.3-2.3,0.5-3.5,0.7
		l-4.2,0.7c5.7,0.5,40.4,5.7,56.1-13c9-10.7,7.6-15.4,8-18C161.7,90,161.3,37.3,161.3,37.3z"/>
	<path class="st7" d="M111.5,110.6c-16.7,0-30.4-14-30.4-31.2c0-6.5,4.7-21.1,10.2-36.2l0-3.4c0,0,0-0.7-0.2-1.7
		c-0.6-4.1-3.4-14.5-15.4-14.6c-15-0.1-17,13.7-17,13.7S58.6,90,59,92.7c0.4,2.7,1.4,12.5,6.9,18.8c10,11.3,21.5,11.9,29.3,11.2
		c7.7-0.7,18.7-5.5,24.7-13.5C117.3,110,114.5,110.6,111.5,110.6z"/>
	<g>
		<defs>
			<path id="SVGID_5_" d="M161.3,37.3c0,0-2-13.8-16.9-13.7c-15,0.1-15.6,16.2-15.6,16.2s0,0.3,0,0.7c6.8,13.8,13.1,29.3,13.1,38.8
				c0,12.8-7.5,23.8-18.3,28.6c-1.5,2.5-3.3,5-5.7,7.4c-2.8,2.5-6.1,4.5-9.7,5.9c-1.1,0.4-2.2,0.8-3.3,1.1c-1.1,0.3-2.3,0.5-3.5,0.7
				l-4.2,0.7c5.7,0.5,40.4,5.7,56.1-13c9-10.7,7.6-15.4,8-18C161.7,90,161.3,37.3,161.3,37.3z"/>
		</defs>
		<clipPath id="SVGID_6_">
			<use xlink:href="#SVGID_5_"  style="overflow:visible;"/>
		</clipPath>
		<polygon class="st8" points="188.7,31.7 87.7,130.1 130.2,130.1 		"/>
		<polygon class="st8" points="92,25 259.7,123.4 150.4,123.4 		"/>
	</g>
	<g>
		<defs>
			<path id="SVGID_7_" d="M111.5,110.6c-16.7,0-30.4-14-30.4-31.2c0-6.5,4.7-21.1,10.2-36.2l0-3.4c0,0,0-0.7-0.2-1.7
				c-0.6-4.1-3.4-14.5-15.4-14.6c-15-0.1-17,13.7-17,13.7S58.6,90,59,92.7c0.4,2.7,1.4,12.5,6.9,18.8c10,11.3,21.5,11.9,29.3,11.2
				c7.7-0.7,18.7-5.5,24.7-13.5C117.3,110,114.5,110.6,111.5,110.6z"/>
		</defs>
		<clipPath id="SVGID_8_">
			<use xlink:href="#SVGID_7_"  style="overflow:visible;"/>
		</clipPath>
		<polygon class="st9" points="36.4,73.3 162.6,35.2 116.6,134.3 		"/>
		<polygon class="st9" points="59.8,30.4 147.5,128.8 38.2,128.8 		"/>
	</g>
	<path class="st10" d="M69.8,96.4C70.7,75,75.5,52.8,91,37.1c-0.9-4.6-4.1-13.4-15.2-13.5c-15-0.1-17,13.7-17,13.7S58.6,90,59,92.7
		c0.4,2.7,1.4,12.5,6.9,18.8c1.4,1.6,2.8,2.9,4.2,4C69.8,109.2,69.6,102.8,69.8,96.4z"/>
	<path class="st11" d="M161.3,37.3c0,0-2-13.8-16.9-13.7c-12.2,0.1-14.8,10.6-15.4,14.6c18.1,17.3,27.8,47.4,24,73
		c0.1-0.2,0.3-0.3,0.5-0.5c9-10.7,7.6-15.4,8-18C161.7,90,161.3,37.3,161.3,37.3z"/>
</g>
<g>
</g>
<g>
</g>
<g>
</g>
<g>
</g>
<g>
</g>
<g>
</g>
<g>
</g>
<g>
</g>
<g>
</g>
<g>
</g>
<g>
</g>
<g>
</g>
<g>
</g>
<g>
</g>
<g>
</g>
</svg>
