<?xml version="1.0" encoding="utf-8"?>
<!-- Generator: Adobe Illustrator 23.0.1, SVG Export Plug-In . SVG Version: 6.00 Build 0)  -->
<svg version="1.1" id="Capa_1" xmlns="http://www.w3.org/2000/svg" xmlns:xlink="http://www.w3.org/1999/xlink" x="0px" y="0px"
	 viewBox="0 0 609 290" style="enable-background:new 0 0 609 290;" xml:space="preserve">
<style type="text/css">
	.st0{fill:#737173;}
	.st1{fill:#FFFFFF;}
	.st2{opacity:0.1;clip-path:url(#SVGID_2_);fill:#FFFFFF;}
	.st3{clip-path:url(#SVGID_4_);}
	.st4{opacity:0.1;fill:#FFFFFF;}
	.st5{fill:#693776;}
	.st6{fill:#B65285;}
	.st7{opacity:0.1;clip-path:url(#SVGID_6_);fill:#FFFFFF;}
	.st8{opacity:0.1;clip-path:url(#SVGID_8_);fill:#FFFFFF;}
	.st9{opacity:0.5;fill:#B65285;}
	.st10{opacity:0.5;fill:#693776;}
	.st11{fill:#C39ECC;}
</style>
<g>
	<g>
		<g>
			<path class="st0" d="M109.46,180.07c-0.3-2.05-0.48-17.43-0.6-36.55c-5.29-4.08-12.29-7.49-21.88-9.63l-25.85-5.76
				c-9.81-2.23-21.16-5.21-21.19-14.64c-0.03-9.43,7.89-16.06,22.22-16.11c28.85-0.1,26.26,20.09,40.62,20.04
				c2.13-0.01,4.11-0.46,5.96-1.16c-0.03-9.43-0.05-18.64-0.07-26.97c-10.2-9.54-28.27-15.73-44.55-15.68
				c-26.19,0.09-54.08,11.49-53.97,41.67c0.05,14.53,5.21,29.97,33.31,37.04l34.93,8.74c10.58,2.61,13.23,8.63,13.25,14.1
				c0.03,9.05-8.8,17.95-24.81,18.01c-31.32,0.11-27.07-24.43-43.84-24.37c-7.55,0.03-13,5.33-12.97,12.86
				c0.05,14.71,17.66,34.27,56.89,34.13c22.14-0.08,37.45-6.66,46.37-17.03C110.81,190.48,109.9,183.1,109.46,180.07z"/>
			<g>
				<path class="st1" d="M482.46,92.96c-0.05-13.78,7.09-18.14,18.03-18.18l51.49-0.18c36.79-0.13,46.67,20.02,46.73,37.56
					c0.05,14.71-8.58,29.27-23.29,32.71l0,0.37c15.86,2.22,18.72,13.7,18.77,27.48c0.05,15.65,4.23,21.48,4.25,27.89
					c0.02,7.18-7.32,12.09-14.47,12.12c-16.99,0.06-18.36-16.33-18.38-21.8c-0.08-23.77-4.45-33.37-21.41-33.31l-30.56,0.11
					l0.14,39.79c0.03,9.24-5.99,15.48-15.41,15.51c-9.44,0.03-15.48-6.17-15.52-15.41L482.46,92.96z M513.53,135.08l30.93-0.11
					c11.7-0.04,23.36-3.09,23.31-18.37c-0.05-14.52-8.93-18.26-22.49-18.21l-31.87,0.11L513.53,135.08z"/>
			</g>
			<path class="st1" d="M284.48,9.89c-11.12,0.04-20.11,8.72-20.84,19.66c0.24,0.97,0.59,1.6,1.01,2.07
				c0.56,0.31,1.17,0.55,1.88,0.63c0.42-0.13,0.83-0.25,1.26-0.43c5.21-3.88,9.43-6.18,15.38-6.91c0.3-0.1,0.7-0.08,1.04-0.12
				c0.68-0.05,1.26-0.19,2.01-0.22c0.15,0,0.24-0.07,0.38-0.07c0.08,0,0.16,0.02,0.25,0.02c0.09,0,0.14-0.02,0.24-0.02
				c0.15,0,0.37,0.08,0.53,0.09c4.85,0.19,9.12,2.07,13.8,3.36c2.42,0.66,3.42-0.17,3.68-1.56C302.99,16.91,294.56,9.85,284.48,9.89
				z"/>
			<path class="st1" d="M179.79,21.4c0.03,7.43-6.38,13.47-14.31,13.5c-7.94,0.03-14.38-5.97-14.41-13.4
				c-0.03-7.43,6.37-13.47,14.31-13.5C173.32,7.97,179.77,13.97,179.79,21.4z"/>
			<g>
				<defs>
					<path id="SVGID_1_" d="M112.05,146.27c-5.48-5.36-13.42-9.78-25.08-12.38l-25.85-5.76c-9.81-2.23-21.16-5.21-21.19-14.64
						c-0.03-9.43,7.89-16.06,22.22-16.11c28.85-0.1,26.26,20.09,40.62,20.04c3.29-0.01,6.29-1.03,8.75-2.68
						c-0.23-3.86-0.19-21.21-0.14-22.81c-9.43-11.07-29.48-18.39-47.25-18.32c-26.19,0.09-54.08,11.49-53.97,41.67
						c0.05,14.53,5.21,29.97,33.31,37.04l34.93,8.74c10.58,2.61,13.23,8.63,13.25,14.1c0.03,9.05-8.8,17.95-24.81,18.01
						c-31.32,0.11-27.07-24.43-43.84-24.37c-7.55,0.03-13,5.33-12.97,12.86c0.05,14.71,17.66,34.27,56.89,34.13
						c24.03-0.08,40.11-7.79,48.57-19.76C111.85,188.3,109.24,161.17,112.05,146.27z"/>
				</defs>
				<use xlink:href="#SVGID_1_"  style="overflow:visible;fill:#FFFFFF;"/>
				<clipPath id="SVGID_2_">
					<use xlink:href="#SVGID_1_"  style="overflow:visible;"/>
				</clipPath>
				<polygon class="st2" points="120.98,127.3 -4.42,216.94 121.83,216.5 				"/>
			</g>
			<path class="st1" d="M457.11,74.93l-8.67,0.03c-9.63,0.03-14.14,3.82-17.31,14.21l-26.28,87.23l-0.37,0L377.2,89.35
				c-3.24-10.36-7.78-14.12-17.4-14.09l-9.05,0.03c-3.33,0.01-6.66,0.52-9.49,1.89c0.35,33.34,0.94,97.56,0.35,101.91
				c-0.6,4.42,1.05,11.41-6.8,24.86c0.93,6.51,4.74,12.07,13.4,12.04c9.99-0.03,13.75-7.39,13.73-15.13l-0.29-84.11l0.37,0
				l29.19,90.04c2.07,6.41,6.82,9.02,13.23,9c6.39-0.02,11.11-2.67,13.17-9.09l28.53-90.24l0.37,0l0.29,84.11
				c0.03,7.73,3.84,15.07,13.83,15.03c9.99-0.03,13.73-7.39,13.7-15.13l-0.38-110.33C473.9,77.7,465.42,74.9,457.11,74.93z"/>
			<g>
				<defs>
					<path id="SVGID_3_" d="M334.22,90.63c-0.04-12.45,8.44-15.31,16.72-15.34l9.05-0.03c9.62-0.03,14.16,3.73,17.41,14.09
						l27.28,87.04l0.37,0l26.28-87.23c3.17-10.38,7.68-14.17,17.31-14.21l8.68-0.03c8.31-0.03,16.79,2.77,16.83,15.22l0.38,110.33
						c0.03,7.73-3.71,15.09-13.7,15.13c-9.99,0.03-13.8-7.3-13.83-15.03l-0.29-84.11l-0.37,0L417.8,206.7
						c-2.05,6.42-6.78,9.07-13.17,9.09c-6.42,0.02-11.16-2.59-13.23-9l-29.18-90.04l-0.37,0l0.29,84.11
						c0.03,7.73-3.73,15.09-13.73,15.13c-9.99,0.03-13.78-7.3-13.8-15.03L334.22,90.63z"/>
				</defs>
				<clipPath id="SVGID_4_">
					<use xlink:href="#SVGID_3_"  style="overflow:visible;"/>
				</clipPath>
				<g class="st3">
					<path class="st4" d="M340.32,125.01c0.41,11.36,0.92,22.72,1.39,34.07c0.69,16.93,0.91,32.87-7.95,47.77
						c-0.96,1.6-2.1,2.67-3.27,3.59l-0.12,30.1l207.23-0.72L340.32,125.01z"/>
				</g>
			</g>
			<path class="st5" d="M326.92,73.59c0,0-4.12-27.84-34.28-27.55c-30.27,0.31-31.42,32.82-31.42,32.82s0.03,0.56,0.06,1.43
				c13.81,27.79,26.68,59.1,26.75,78.26c0.09,25.85-15.06,48.11-36.71,57.89c-2.98,5.02-6.61,10.1-11.35,14.98
				c-5.71,5.04-12.33,9.07-19.55,11.87c-2.15,0.86-4.41,1.61-6.7,2.22c-2.26,0.63-4.62,1.09-7.01,1.47l-8.38,1.48
				c11.55,1.05,81.64,11.13,113.19-26.65c18.15-21.69,15.2-31.07,15.94-36.44C328.18,179.94,326.92,73.59,326.92,73.59z"/>
			<path class="st6" d="M226.98,221.79c-33.79,0.12-61.37-28.04-61.49-62.81c-0.05-13.08,9.25-42.62,20.31-73.04l0.03-6.81
				c0,0-0.06-1.32-0.35-3.35c-1.32-8.26-6.99-29.18-31.18-29.25c-30.24-0.08-34.17,27.78-34.17,27.78s0,106.35,0.78,111.78
				c0.76,5.36,2.9,25.29,14.12,37.9c20.22,22.73,43.49,23.81,59.3,22.36c15.6-1.41,37.73-11.29,49.78-27.43
				C238.64,220.59,232.96,221.77,226.98,221.79z"/>
			<g>
				<defs>
					<path id="SVGID_5_" d="M326.92,73.59c0,0-4.12-27.84-34.28-27.55c-30.27,0.31-31.42,32.82-31.42,32.82s0.03,0.56,0.06,1.43
						c13.81,27.79,26.68,59.1,26.75,78.26c0.09,25.85-15.06,48.11-36.71,57.89c-2.98,5.02-6.61,10.1-11.35,14.98
						c-5.71,5.04-12.33,9.07-19.55,11.87c-2.15,0.86-4.41,1.61-6.7,2.22c-2.26,0.63-4.62,1.09-7.01,1.47l-8.38,1.48
						c11.55,1.05,81.64,11.13,113.19-26.65c18.15-21.69,15.2-31.07,15.94-36.44C328.18,179.94,326.92,73.59,326.92,73.59z"/>
				</defs>
				<clipPath id="SVGID_6_">
					<use xlink:href="#SVGID_5_"  style="overflow:visible;"/>
				</clipPath>
				<polygon class="st7" points="382.14,62.04 179.06,261.27 264.86,260.97 				"/>
				<polygon class="st7" points="186.96,49.25 526.05,246.6 305.61,247.36 				"/>
			</g>
			<g>
				<defs>
					<path id="SVGID_7_" d="M226.98,221.79c-33.79,0.12-61.37-28.04-61.49-62.81c-0.05-13.08,9.25-42.62,20.31-73.04l0.03-6.81
						c0,0-0.06-1.32-0.35-3.35c-1.32-8.26-6.99-29.18-31.18-29.25c-30.24-0.08-34.17,27.78-34.17,27.78s0,106.35,0.78,111.78
						c0.76,5.36,2.9,25.29,14.12,37.9c20.22,22.73,43.49,23.81,59.3,22.36c15.6-1.41,37.73-11.29,49.78-27.43
						C238.64,220.59,232.96,221.77,226.98,221.79z"/>
				</defs>
				<clipPath id="SVGID_8_">
					<use xlink:href="#SVGID_7_"  style="overflow:visible;"/>
				</clipPath>
				<polygon class="st8" points="75.26,146.98 329.62,69.32 237.39,269.53 				"/>
				<polygon class="st8" points="122.09,60.33 299.75,258.25 79.31,259.01 				"/>
			</g>
			<path class="st9" d="M142.84,193.39c1.51-43.2,11.05-88.04,42.19-119.78c-1.87-9.21-8.35-27.03-30.73-27.08
				c-30.24-0.08-34.17,27.78-34.17,27.78s0,106.35,0.78,111.78c0.76,5.36,2.9,25.29,14.12,37.9c2.77,3.15,5.65,5.75,8.49,8.12
				C142.77,219.23,142.38,206.32,142.84,193.39z"/>
			<path class="st10" d="M326.86,73.59c0,0-4.12-27.84-34.28-27.55c-24.57,0.27-29.87,21.53-31,29.58
				c36.69,34.8,56.49,95.45,48.94,147.14c0.29-0.32,0.68-0.61,0.95-0.96c18.14-21.69,15.21-31.07,15.93-36.44
				C328.13,179.94,326.86,73.59,326.86,73.59z"/>
		</g>
	</g>
	<g>
		<path class="st11" d="M411.84,225.97h11.64c3.34,0,6.02,0.18,8.03,0.53c2.01,0.35,3.68,0.92,5.01,1.7
			c2.41,1.46,4.26,3.35,5.56,5.67c1.29,2.32,1.94,4.94,1.94,7.86c0,2.76-0.59,5.32-1.75,7.67c-1.17,2.35-2.8,4.21-4.88,5.6
			c-1.46,0.98-3.2,1.69-5.22,2.13c-2.02,0.44-4.6,0.66-7.74,0.66h-7.2v23.06h-5.39V225.97z M417.23,231.35v20.91h7.95
			c4.42,0,7.69-0.84,9.8-2.52c2.11-1.68,3.17-4.28,3.17-7.8c0-3.67-1.06-6.35-3.18-8.05c-2.12-1.7-5.53-2.54-10.23-2.54H417.23z"/>
		<path class="st11" d="M454.61,234.52h-5.31v-8.55h5.31V234.52z M449.29,280.83v-41.45h5.31v41.45H449.29z"/>
		<path class="st11" d="M496.36,252.12c-1.63-3.01-3.62-5.24-5.97-6.69c-2.35-1.44-5.14-2.17-8.38-2.17c-4.27,0-7.9,1.62-10.87,4.86
			c-2.98,3.24-4.47,7.25-4.47,12.02c0,4.77,1.49,8.76,4.48,11.96c2.99,3.2,6.68,4.8,11.08,4.8c3.22,0,6.05-0.79,8.52-2.37
			c2.46-1.58,4.33-3.81,5.62-6.67h5.88c-1.61,4.5-4.13,7.98-7.57,10.44c-3.44,2.46-7.5,3.69-12.17,3.69c-6,0-11.07-2.13-15.2-6.39
			c-4.13-4.26-6.2-9.39-6.2-15.39c0-6.13,2.09-11.32,6.27-15.58c4.18-4.26,9.28-6.39,15.28-6.39c4.5,0,8.46,1.21,11.89,3.64
			c3.43,2.43,6,5.84,7.7,10.23H496.36z"/>
		<path class="st11" d="M515.35,280.83h-5.31v-54.87h5.31v32.63l14.96-19.22h6.1l-15.04,19.22l18.28,22.23h-6.71l-17.6-21.59V280.83
			z"/>
		<path class="st11" d="M581.23,261.8h-37.42c0.33,4.51,1.96,8.16,4.9,10.94c2.94,2.78,6.61,4.17,11,4.17c3.12,0,5.92-0.81,8.4-2.42
			c2.49-1.61,4.41-3.86,5.77-6.74h6.03c-1.91,4.59-4.59,8.11-8.05,10.56c-3.45,2.45-7.46,3.68-12,3.68c-6.03,0-11.13-2.15-15.3-6.44
			c-4.17-4.3-6.25-9.46-6.25-15.49c0-6.31,2.04-11.52,6.12-15.64c4.08-4.12,9.3-6.18,15.66-6.18c6.23,0,11.31,2.14,15.24,6.43
			c3.93,4.29,5.9,9.86,5.9,16.73V261.8z M575.35,257.17c-1-4.61-2.85-8.08-5.54-10.41c-2.69-2.33-6.19-3.49-10.51-3.49
			c-4.02,0-7.42,1.25-10.21,3.76c-2.79,2.5-4.5,5.89-5.13,10.15H575.35z"/>
		<path class="st11" d="M592.64,280.83h-5.39v-41.45h5.01v4.79c1.3-1.83,2.73-3.18,4.28-4.03c1.54-0.85,3.35-1.31,5.41-1.36
			l0.04,5.77c-3.34,0.3-5.73,1.3-7.18,3c-1.44,1.7-2.17,4.45-2.17,8.27V280.83z"/>
	</g>
	<g>
		<path class="st11" d="M364.98,254.29c-0.85,0-1.71-0.29-2.42-0.88c-1.61-1.34-1.82-3.72-0.48-5.33l18.93-22.72
			c1.34-1.6,3.72-1.82,5.34-0.48c1.6,1.34,1.82,3.72,0.48,5.33l-18.93,22.72C367.14,253.83,366.07,254.29,364.98,254.29z
			 M395.27,250.51v3.79c0,2.09-1.69,3.79-3.79,3.79l-3.79,22.72h-45.43l-3.79-22.72c-2.09,0-3.79-1.69-3.79-3.79v-3.79
			c0-2.09,1.7-3.79,3.79-3.79h22.27l-0.13,0.15c-2,2.41-1.68,5.99,0.73,8c1.02,0.85,2.31,1.32,3.63,1.32c1.69,0,3.28-0.74,4.36-2.04
			l6.19-7.42h15.95C393.58,246.72,395.27,248.41,395.27,250.51z M351.73,263.76c0-1.05-0.85-1.89-1.89-1.89s-1.89,0.85-1.89,1.89
			v11.36c0,1.05,0.85,1.89,1.89,1.89s1.89-0.85,1.89-1.89V263.76z M359.31,263.76c0-1.05-0.85-1.89-1.89-1.89s-1.89,0.85-1.89,1.89
			v11.36c0,1.05,0.85,1.89,1.89,1.89s1.89-0.85,1.89-1.89V263.76z M366.88,263.76c0-1.05-0.85-1.89-1.89-1.89
			c-1.05,0-1.89,0.85-1.89,1.89v11.36c0,1.05,0.85,1.89,1.89,1.89c1.05,0,1.89-0.85,1.89-1.89V263.76z M374.45,263.76
			c0-1.05-0.85-1.89-1.89-1.89s-1.89,0.85-1.89,1.89v11.36c0,1.05,0.85,1.89,1.89,1.89s1.89-0.85,1.89-1.89V263.76z M382.02,263.76
			c0-1.05-0.85-1.89-1.89-1.89s-1.89,0.85-1.89,1.89v11.36c0,1.05,0.85,1.89,1.89,1.89s1.89-0.85,1.89-1.89V263.76z"/>
	</g>
</g>
</svg>
